<svg width="14" height="16" viewBox="0 0 14 16" fill="none" xmlns="http://www.w3.org/2000/svg">
<path d="M13.2501 11.3216C12.6895 10.6728 11.6405 9.69688 11.6405 6.5C11.6405 4.07188 10.0596 2.12812 7.92799 1.65125V1C7.92799 0.447812 7.51245 0 7 0C6.48755 0 6.07201 0.447812 6.07201 1V1.65125C3.94037 2.12812 2.35948 4.07188 2.35948 6.5C2.35948 9.69688 1.31049 10.6728 0.749863 11.3216C0.575756 11.5231 0.498569 11.7641 0.50002 12C0.503212 12.5125 0.876671 13 1.43149 13H12.5685C13.1233 13 13.4971 12.5125 13.5 12C13.5014 11.7641 13.4242 11.5228 13.2501 11.3216ZM2.45959 11.5C3.07535 10.6259 3.74856 9.17719 3.75175 6.51813C3.75175 6.51188 3.75001 6.50625 3.75001 6.5C3.75001 4.56687 5.20496 3 7 3C8.79504 3 10.25 4.56687 10.25 6.5C10.25 6.50625 10.2482 6.51188 10.2482 6.51813C10.2514 9.1775 10.9247 10.6263 11.5404 11.5H2.45959ZM7 16C8.02491 16 8.85627 15.1047 8.85627 14H5.14373C5.14373 15.1047 5.97509 16 7 16Z" fill="white"/>
</svg>
