<svg width="132" height="35" viewBox="0 0 132 35" fill="none" xmlns="http://www.w3.org/2000/svg">
<path d="M74.7728 25.0166C73.4273 25.0166 72.1904 24.7062 71.0623 24.0854C69.9478 23.4646 69.0576 22.6008 68.3916 21.4941C67.7392 20.374 67.413 19.1188 67.413 17.7287C67.413 16.3386 67.7392 15.0903 68.3916 13.9836C69.0576 12.8769 69.9478 12.0131 71.0623 11.3923C72.1904 10.7715 73.4273 10.4611 74.7728 10.4611C76.1184 10.4611 77.3484 10.7715 78.4629 11.3923C79.591 12.0131 80.4745 12.8769 81.1133 13.9836C81.7657 15.0903 82.0919 16.3386 82.0919 17.7287C82.0919 19.1188 81.7657 20.374 81.1133 21.4941C80.4609 22.6008 79.5774 23.4646 78.4629 24.0854C77.3484 24.7062 76.1184 25.0166 74.7728 25.0166ZM74.7728 21.8585C75.9145 21.8585 76.8252 21.4807 77.5047 20.7249C78.1979 19.9691 78.5445 18.9704 78.5445 17.7287C78.5445 16.4736 78.1979 15.4749 77.5047 14.7326C76.8252 13.9768 75.9145 13.5989 74.7728 13.5989C73.6175 13.5989 72.6933 13.9701 72.0002 14.7124C71.3206 15.4546 70.9808 16.4601 70.9808 17.7287C70.9808 18.9839 71.3206 19.9893 72.0002 20.7451C72.6933 21.4874 73.6175 21.8585 74.7728 21.8585Z" fill="#2C3C28"/>
<path d="M98.0447 10.6485V25.0166H96.6103V13.543L91.5694 25.0166H90.5244L85.4835 13.5846V25.0166H84.0491V10.6485H85.5654L91.0366 23.1009L96.5079 10.6485H98.0447Z" fill="#6DA82D"/>
<path d="M108.573 21.5599H102.057L100.807 25.0166H99.2905L104.516 10.6485H106.135L111.339 25.0166H109.823L108.573 21.5599ZM108.143 20.3522L105.315 12.481L102.487 20.3522H108.143Z" fill="#6DA82D"/>
<path d="M120.24 25.0166L116.695 18.9362H114.051V25.0166H112.617V10.4611H116.92C118.519 10.4611 119.728 10.8498 120.547 11.6272C121.38 12.4046 121.797 13.425 121.797 14.6882C121.797 15.7433 121.497 16.6456 120.896 17.3953C120.308 18.131 119.434 18.61 118.273 18.8321L121.961 25.0166H120.24ZM114.051 17.7493H116.941C118.061 17.7493 118.901 17.4716 119.461 16.9163C120.035 16.361 120.322 15.6183 120.322 14.6882C120.322 13.7304 120.049 12.9946 119.502 12.481C118.956 11.9534 118.095 11.6897 116.92 11.6897H114.051V17.7493Z" fill="#6DA82D"/>
<path d="M132 10.4611V11.6688H128.025V25.0166H126.59V11.6688H122.595V10.4611H132Z" fill="#6DA82D"/>
<path d="M48.897 13.3017V16.246H53.5874V18.9829H48.897V22.176H54.2019V25.0166H45.3945V10.4611H54.2019V13.3017H48.897Z" fill="#2C3C28"/>
<path d="M64.0753 25.0166L59.2014 18.589V25.0166H55.6699V10.4611H59.2014V16.8473L64.034 10.4611H68.1851L62.5677 17.5937L68.3916 25.0166H64.0753Z" fill="#2C3C28"/>
<path d="M32.6549 23.2503C35.8998 14.8114 31.6891 5.33986 23.2503 2.09503C14.8114 -1.14979 5.33986 3.06083 2.09503 11.4997C-1.14979 19.9386 3.06083 29.4101 11.4997 32.6549C19.9386 35.8998 29.4101 31.6891 32.6549 23.2503Z" fill="#FFFFEA"/>
<path d="M25.0802 17.3738C25.0802 21.6292 21.6306 25.0813 17.3726 25.0813C13.1172 25.0813 9.66504 21.6317 9.66504 17.3738C9.66504 13.1183 13.1147 9.66867 17.3726 9.66867C21.6281 9.66618 25.0802 13.1183 25.0802 17.3738Z" fill="#FFD379"/>
<path d="M17.376 25.0812C21.6314 25.0812 25.0836 21.6316 25.0836 17.3736C25.0836 16.6872 24.9866 16.0256 24.8174 15.3939C21.5121 16.0057 18.3932 16.8836 15.5654 18.0451C13.7075 17.4731 11.7427 17.0204 9.70572 16.6747C9.68582 16.906 9.6709 17.1398 9.6709 17.3761C9.6709 21.6291 13.1205 25.0812 17.376 25.0812Z" fill="#D0DB58"/>
<path d="M25.0802 17.3738C25.0802 21.6292 21.6306 25.0813 17.3726 25.0813C13.1172 25.0813 9.66504 21.6317 9.66504 17.3738C9.66504 13.1183 13.1147 9.66867 17.3726 9.66867C21.6281 9.66618 25.0802 13.1183 25.0802 17.3738Z" stroke="#2C3C28" stroke-width="1.5" stroke-miterlimit="10" stroke-linecap="round" stroke-linejoin="round"/>
<path d="M33.7301 16.799C33.7201 16.4956 33.7027 16.1947 33.6754 15.8962C21.2845 16.426 10.1199 20.1666 4.47412 27.4464C5.20782 28.384 6.03852 29.2446 6.95626 30.0031C7.87152 30.7592 8.87383 31.4133 9.93832 31.958C10.9978 32.5002 12.1245 32.933 13.3034 33.2339C14.4848 33.5348 15.7184 33.704 16.9843 33.7338C17.1137 33.7363 17.243 33.7438 17.3748 33.7438C18.6308 33.7438 19.852 33.597 21.0259 33.3309C22.6947 32.9504 24.2691 32.3162 25.6992 31.4681C28.7011 29.6923 31.0888 26.9838 32.4592 23.7431C32.7626 23.0268 33.0138 22.2831 33.2153 21.5196C33.3421 21.0321 33.4466 20.5322 33.5286 20.0273C33.5933 19.6294 33.643 19.2265 33.6779 18.8186C33.7077 18.4679 33.7276 18.1147 33.7351 17.7591C33.7375 17.6297 33.745 17.5029 33.745 17.3736C33.745 17.1821 33.7375 16.9905 33.7301 16.799Z" fill="#7BAB47"/>
<path d="M33.2426 18.5077C33.0287 19.3334 32.7551 20.1343 32.4293 20.9053C30.952 24.4022 28.3778 27.3196 25.1421 29.2347C23.5976 30.1499 21.9038 30.8339 20.1032 31.2418C18.8372 31.5303 17.5215 31.687 16.1661 31.687C16.0243 31.687 15.885 31.6795 15.7457 31.677C14.3778 31.6447 13.0497 31.4631 11.7763 31.1373C10.5054 30.8115 9.29167 30.3439 8.15008 29.7619C7.00103 29.175 5.92162 28.4686 4.93424 27.6553C4.80988 27.5509 4.68801 27.4414 4.56614 27.3345C4.5363 27.3718 4.50397 27.4091 4.47412 27.4489C5.20782 28.3865 6.03852 29.2471 6.95626 30.0057C7.87152 30.7617 8.87383 31.4159 9.93832 31.9605C10.9978 32.5027 12.1245 32.9355 13.3034 33.2364C14.4848 33.5374 15.7184 33.7065 16.9843 33.7363C17.1137 33.7388 17.243 33.7463 17.3748 33.7463C18.6308 33.7463 19.852 33.5995 21.0259 33.3334C22.6947 32.9529 24.2691 32.3187 25.6992 31.4706C28.7011 29.6948 31.0888 26.9863 32.4592 23.7456C32.7626 23.0293 33.0138 22.2856 33.2153 21.5221C33.3421 21.0346 33.4466 20.5347 33.5286 20.0298C33.5933 19.6319 33.643 19.229 33.6779 18.8211C33.7077 18.4704 33.7276 18.1172 33.7351 17.7616C33.7375 17.6323 33.745 17.5054 33.745 17.3761C33.745 17.1846 33.7375 16.9931 33.7301 16.8016C33.7226 16.5703 33.7052 16.3414 33.6878 16.1101C33.658 16.3763 33.6231 16.6399 33.5809 16.901C33.4913 17.4432 33.3794 17.9805 33.2426 18.5077Z" fill="#A0C73A"/>
<path d="M32.4592 23.7404C29.6985 26.036 27.3755 28.7942 25.6992 31.4654C28.7012 29.6896 31.0888 26.9836 32.4592 23.7404Z" stroke="#2C3C28" stroke-width="1.5412" stroke-miterlimit="10" stroke-linecap="round" stroke-linejoin="round"/>
<path d="M33.6775 18.8185C33.7074 18.4678 33.7273 18.1147 33.7347 17.759C22.876 19.6915 13.5941 25.0214 9.93799 31.9555C10.9975 32.4977 12.1242 32.9304 13.3031 33.2314C16.2727 27.0683 24.1742 21.3877 33.6775 18.8185Z" stroke="#2C3C28" stroke-width="1.5412" stroke-miterlimit="10" stroke-linecap="round" stroke-linejoin="round"/>
<path d="M33.7348 17.7592C33.7373 17.6299 33.7448 17.503 33.7448 17.3737C33.7448 17.1822 33.7373 16.9907 33.7299 16.7992C21.9161 18.0278 11.5398 22.6564 6.95605 30.0008C7.87131 30.7569 8.87362 31.411 9.93811 31.9557C13.5942 25.0216 22.8761 19.6917 33.7348 17.7592Z" stroke="#2C3C28" stroke-width="1.2" stroke-miterlimit="10" stroke-linecap="round" stroke-linejoin="round"/>
<path d="M33.7301 16.799C33.7201 16.4956 33.7027 16.1947 33.6754 15.8962C21.2845 16.426 10.1199 20.1666 4.47412 27.4464C5.20782 28.384 6.03852 29.2446 6.95626 30.0031C11.54 22.6562 21.9163 18.0252 33.7301 16.799Z" stroke="#2C3C28" stroke-width="1.2" stroke-miterlimit="10" stroke-linecap="round" stroke-linejoin="round"/>
<path d="M32.4587 23.7404C32.7621 23.0241 33.0133 22.2805 33.2148 21.5169C27.7406 24.5736 23.3135 29.1623 21.0254 33.3283C22.6942 32.9477 24.2686 32.3135 25.6987 31.4654C27.375 28.7942 29.698 26.0385 32.4587 23.7404Z" stroke="#2C3C28" stroke-width="1.2" stroke-miterlimit="10" stroke-linecap="round" stroke-linejoin="round"/>
<path d="M33.2167 21.5171C33.3436 21.0296 33.448 20.5297 33.5301 20.0248C25.825 23.0367 19.555 28.5282 16.9883 33.7313C17.1176 33.7338 17.2469 33.7412 17.3788 33.7412C18.6348 33.7412 19.8559 33.5945 21.0298 33.3284C23.3155 29.1649 27.7426 24.5762 33.2167 21.5171Z" stroke="#2C3C28" stroke-width="1.2" stroke-miterlimit="10" stroke-linecap="round" stroke-linejoin="round"/>
<path d="M33.5294 20.0274C33.5941 19.6295 33.6438 19.2266 33.6787 18.8187C24.1754 21.3904 16.2738 27.071 13.3042 33.234C14.4856 33.535 15.7192 33.7041 16.9851 33.7339C19.5543 28.5309 25.8243 23.0393 33.5294 20.0274Z" stroke="#2C3C28" stroke-width="1.2" stroke-miterlimit="10" stroke-linecap="round" stroke-linejoin="round"/>
<path d="M1.00586 17.3512C1.00586 17.3587 1.00586 17.3661 1.00586 17.3736C1.00586 17.6123 1.01332 17.8486 1.02327 18.0824C1.0357 18.3411 1.05311 18.5997 1.0755 18.8559C1.10037 19.1369 1.1327 19.418 1.1725 19.6941C1.21726 20.0124 1.26949 20.3283 1.33167 20.6392C1.40877 21.0247 1.50577 21.4027 1.61023 21.7758C1.75697 22.308 1.93107 22.8278 2.13004 23.3352C3.60241 27.0982 6.42529 30.1797 10.0067 31.9879C11.2627 32.6221 12.6083 33.1021 14.0234 33.3956C15.1053 33.6219 16.227 33.7413 17.3761 33.7413C17.4581 33.7413 17.5377 33.7363 17.6198 33.7363C22.2235 33.6692 26.367 31.7019 29.2993 28.583C24.2405 21.2137 13.1753 17.5924 1.00586 17.3512Z" fill="#A0C73A"/>
<path d="M19.3309 31.4681C18.0078 31.4681 16.7145 31.3313 15.4684 31.0701C13.8394 30.7319 12.2874 30.1773 10.8399 29.4485C6.71628 27.3643 3.46313 23.8127 1.76692 19.4802C1.5381 18.8957 1.33665 18.2963 1.16752 17.6845C1.13768 17.575 1.11032 17.4631 1.08047 17.3537C1.0556 17.3537 1.03073 17.3512 1.00586 17.3512C1.00586 17.3587 1.00586 17.3661 1.00586 17.3736C1.00586 17.6123 1.01332 17.8486 1.02327 18.0824C1.0357 18.3411 1.05311 18.5997 1.0755 18.8559C1.10037 19.1369 1.1327 19.418 1.1725 19.6941C1.21726 20.0124 1.26949 20.3283 1.33167 20.6392C1.40877 21.0247 1.50577 21.4027 1.61023 21.7758C1.75697 22.308 1.93107 22.8278 2.13004 23.3352C3.60241 27.0982 6.42529 30.1797 10.0067 31.9879C11.2627 32.6221 12.6083 33.1021 14.0234 33.3956C15.1053 33.6219 16.227 33.7413 17.3761 33.7413C17.4581 33.7413 17.5377 33.7363 17.6198 33.7363C22.1911 33.6692 26.3048 31.7292 29.2346 28.6477C26.4317 30.3837 23.1412 31.4084 19.612 31.4606C19.52 31.4631 19.4255 31.4681 19.3309 31.4681Z" fill="#D0DB58"/>
<path d="M1.6084 21.7784C1.75514 22.3106 1.92924 22.8304 2.12821 23.3378C5.46094 25.7379 8.21667 28.9587 10.0049 31.9905C11.2609 32.6247 12.6064 33.1047 14.0216 33.3982C11.8578 29.2522 7.2641 24.564 1.6084 21.7784Z" stroke="#2C3C28" stroke-width="1.5412" stroke-miterlimit="10" stroke-linecap="round" stroke-linejoin="round"/>
<path d="M2.13135 23.3352C3.60372 27.0982 6.4266 30.1798 10.008 31.9879C8.21981 28.9586 5.46409 25.7378 2.13135 23.3352Z" stroke="#2C3C28" stroke-width="1.2" stroke-miterlimit="10" stroke-linecap="round" stroke-linejoin="round"/>
<path d="M1.33252 20.6416C1.40962 21.0271 1.50662 21.4051 1.61108 21.7782C7.26678 24.5663 11.8605 29.252 14.0243 33.398C15.1062 33.6244 16.2279 33.7437 17.3769 33.7437C17.459 33.7437 17.5386 33.7388 17.6207 33.7388C15.2803 28.6874 8.99035 23.2655 1.33252 20.6416Z" stroke="#2C3C28" stroke-width="1.2" stroke-miterlimit="10" stroke-linecap="round" stroke-linejoin="round"/>
<path d="M1.02327 18.0824C1.01332 17.8486 1.00586 17.6123 1.00586 17.3736C1.00586 17.3661 1.00586 17.3587 1.00586 17.3512C13.1753 17.5924 24.2405 21.2137 29.2993 28.583C26.367 31.7019 22.2235 33.6692 17.6198 33.7363C15.2794 28.6875 8.99199 23.2656 1.33167 20.6392C1.26949 20.3283 1.21726 20.0124 1.1725 19.6941M1.02327 18.0824C12.4665 18.9728 22.6363 23.375 26.7699 30.5404C22.6388 23.375 12.4665 18.9728 1.02327 18.0824ZM1.02327 18.0824C1.0357 18.3411 1.05311 18.5997 1.0755 18.8559M1.0755 18.8559C11.4468 20.3855 20.4427 25.3523 23.8475 31.9058C20.4427 25.3498 11.4493 20.383 1.0755 18.8559ZM1.0755 18.8559C1.10037 19.1369 1.1327 19.418 1.1725 19.6941M1.1725 19.6941C10.4395 21.8529 18.2416 27.3395 20.9227 33.2712" stroke="#2C3C28" stroke-width="1.2" stroke-miterlimit="10" stroke-linecap="round" stroke-linejoin="round"/>
<path d="M32.6549 23.2503C35.8998 14.8114 31.6891 5.33986 23.2503 2.09503C14.8114 -1.14979 5.33986 3.06083 2.09503 11.4997C-1.14979 19.9386 3.06083 29.4101 11.4997 32.6549C19.9386 35.8998 29.4101 31.6891 32.6549 23.2503Z" stroke="#2C3C28" stroke-width="1.5" stroke-miterlimit="10" stroke-linecap="round" stroke-linejoin="round"/>
</svg>
