<svg width="2790" height="939" viewBox="0 0 2790 939" fill="none" xmlns="http://www.w3.org/2000/svg">
<path d="M381.452 0C441.579 97.4477 508.445 205.262 484.083 323.443C482.528 329.663 479.418 336.92 474.234 340.03C445.207 357.654 424.992 381.497 402.704 406.378C404.777 359.209 400.112 315.668 379.378 274.72C358.645 315.668 353.98 359.209 356.572 407.414C333.765 371.131 293.853 358.69 275.192 322.407C253.422 205.78 315.623 92.2643 381.452 0Z" fill="#52583F"/>
<path d="M540.048 454.07C610.542 397.053 696.068 442.666 757.232 489.317C693.994 531.821 591.363 561.884 535.383 493.982C563.373 495.019 588.253 491.39 611.579 473.248C587.217 461.327 568.038 456.661 540.048 454.07Z" fill="#52583F"/>
<path d="M623.041 650.989C579.5 629.218 517.3 612.632 516.781 553.541C530.776 561.316 544.253 568.573 557.73 575.83C558.767 574.793 549.437 546.284 538.033 534.881C597.124 532.289 623.041 613.668 623.041 650.989Z" fill="#52583F"/>
<path d="M513.116 638.094C525.557 674.896 556.139 729.84 548.363 764.568C501.195 826.251 452.471 885.86 392.343 936.139C353.986 958.427 247.209 812.256 221.292 781.674C192.783 739.17 230.622 685.263 243.58 639.13C251.874 687.336 295.414 708.07 307.854 753.165C311.483 789.449 252.91 789.967 305.781 844.393C308.373 846.984 311.483 849.058 310.964 853.723C313.038 900.373 395.972 895.708 426.554 880.676C438.476 875.493 448.842 868.755 446.769 853.204C445.732 845.948 451.952 844.393 455.581 840.764C479.424 819.512 480.461 798.779 456.617 778.045C422.407 738.133 508.451 679.561 513.116 638.094Z" fill="#52583F"/>
<path d="M432.803 601.793C434.876 549.441 506.407 547.368 491.375 502.272C482.563 471.69 461.311 417.783 439.541 395.495C436.431 393.421 433.321 395.495 431.248 398.086C400.147 425.04 400.147 464.952 422.436 499.162C376.822 489.832 383.042 451.475 349.869 438.517C350.905 450.439 356.607 460.805 361.79 473.764C332.245 460.805 315.14 437.48 306.846 411.045C208.362 582.097 298.553 501.754 323.433 602.83C288.705 594.537 267.971 570.693 257.086 537.001C268.489 690.429 268.489 621.49 325.507 732.415C332.245 714.791 328.617 698.205 330.172 682.136C338.465 710.126 351.424 761.96 330.69 784.767C291.815 812.757 321.878 822.606 337.947 848.523C335.355 863.036 345.722 864.591 354.534 867.701C373.194 872.885 406.886 874.958 417.253 857.334C420.881 826.234 469.605 816.904 427.101 785.804C401.702 765.07 418.289 709.09 426.064 680.581C428.138 697.168 425.028 713.755 430.211 734.488C477.898 630.302 491.375 686.283 497.595 540.111C487.228 572.248 466.495 593.5 432.803 601.793ZM344.685 823.642C341.057 816.904 326.543 813.276 341.057 800.836C343.648 809.129 347.277 815.867 344.685 823.642ZM347.795 566.546C342.093 555.661 337.428 545.813 332.763 535.964C344.685 541.666 352.979 549.96 347.795 566.546ZM417.771 802.909C432.803 808.611 417.771 819.496 412.069 828.308C408.959 820.532 413.106 815.867 413.624 810.684C414.661 807.574 414.143 803.427 417.771 802.909ZM412.588 565.51C405.849 548.923 416.216 540.63 429.693 529.226C422.436 543.74 417.771 553.588 412.588 565.51Z" fill="#52583F"/>
<path d="M703.315 189.172C617.789 231.157 497.016 264.331 495.461 379.402C522.933 364.37 548.85 350.375 574.767 335.862C576.84 338.453 558.698 393.397 536.41 416.204C657.701 417.759 700.723 265.886 703.315 189.172Z" fill="#52583F"/>
<path d="M217.184 468.007C146.69 410.99 61.164 456.604 0 503.254C63.2373 545.758 165.868 575.822 221.849 507.919C193.859 508.956 168.978 505.328 145.653 487.186C169.497 475.782 189.194 470.599 217.184 468.007Z" fill="#52583F"/>
<path d="M133.719 665.532C177.259 643.762 239.46 627.175 239.978 568.085C225.983 575.86 196.956 587.781 195.919 586.226C199.548 572.231 207.323 560.31 218.726 548.906C159.636 546.833 134.237 628.212 133.719 665.532Z" fill="#52583F"/>
<path d="M53.3516 203.727C138.877 245.712 259.65 278.886 261.205 393.957C233.733 378.925 207.817 364.93 181.9 350.416C179.826 353.008 197.968 407.952 220.257 430.759C99.4837 432.314 55.9433 280.441 53.3516 203.727Z" fill="#52583F"/>
<path d="M945.887 627.181C937.359 627.181 935.39 626.525 934.734 619.965V194.854C934.734 191.574 934.734 188.294 935.39 185.013C935.39 181.077 937.359 179.109 941.951 178.453H1021.99C1067.91 178.453 1102.02 212.567 1103.99 257.833V549.769C1102.68 592.411 1067.91 627.181 1024.61 627.837H945.887V627.181ZM1048.88 542.553V271.61C1048.88 246.025 1036.42 233.56 1009.52 233.56C991.809 233.56 989.841 234.872 989.841 247.993V560.266C989.841 562.234 989.841 564.858 990.497 567.482C990.497 572.73 995.09 572.73 1011.49 572.73H1018.05C1034.45 571.418 1047.57 558.954 1048.88 542.553Z" fill="#52583F"/>
<path d="M1268.63 627.181C1262.07 626.525 1260.76 625.213 1259.45 619.309L1255.51 576.667C1254.2 567.482 1252.89 566.17 1243.71 566.17H1199.09C1187.94 566.17 1187.29 569.45 1187.29 572.73V573.386L1182.69 618.653C1182.04 625.213 1180.07 627.181 1173.51 627.181H1139.4C1132.18 627.181 1130.21 625.869 1130.21 621.277L1180.73 186.326C1181.38 179.765 1183.35 178.453 1189.91 178.453H1251.58C1258.79 178.453 1260.76 179.765 1261.42 186.982L1311.93 617.341C1311.93 623.245 1311.93 626.525 1306.68 626.525C1303.4 627.181 1300.12 627.181 1297.5 627.181H1268.63ZM1247.64 507.783C1247.64 501.222 1245.02 480.885 1245.02 480.885C1231.24 345.086 1227.3 317.533 1224.02 281.451C1224.02 280.139 1223.37 272.922 1221.4 272.922C1218.78 272.922 1218.12 279.483 1218.12 280.795L1199.75 457.924C1197.78 471.045 1193.85 493.35 1193.85 507.127C1193.85 512.375 1196.47 513.687 1202.37 513.687H1240.42C1245.67 513.687 1247.64 512.375 1247.64 507.783Z" fill="#52583F"/>
<path d="M1458.27 627.181C1450.4 627.181 1448.43 626.525 1447.12 621.277V474.325C1447.12 449.396 1441.21 430.371 1405.79 430.371L1394.64 431.027C1390.04 431.027 1388.08 432.995 1388.08 437.587V610.78C1388.08 621.277 1388.08 625.869 1380.86 627.181H1343.47C1336.9 627.181 1332.97 627.181 1332.97 617.341V186.982C1333.62 180.421 1335.59 179.109 1342.15 178.453H1420.22C1464.18 178.453 1502.88 209.287 1502.88 265.05V345.086C1502.88 362.143 1498.95 379.856 1489.11 394.945C1488.45 395.601 1485.17 399.537 1485.17 403.473C1485.17 404.785 1485.17 406.097 1485.82 407.409C1495.01 416.594 1502.23 440.867 1502.88 453.988V612.748C1502.88 624.557 1502.88 625.869 1495.67 627.181H1458.27ZM1447.12 336.558V272.266C1447.12 244.713 1432.03 233.56 1407.76 233.56L1393.32 234.216C1390.04 234.872 1388.73 236.184 1388.08 239.464V363.455C1388.08 372.64 1388.08 375.92 1395.95 375.92H1416.29C1437.93 373.952 1447.12 356.239 1447.12 336.558Z" fill="#52583F"/>
<path d="M1664.89 627.181C1656.36 627.181 1654.39 625.869 1652.42 617.997C1645.21 583.883 1620.93 492.038 1608.47 442.835C1608.47 438.243 1605.85 431.683 1601.25 431.683C1597.97 431.683 1596.66 433.651 1596.66 438.899V610.78C1596.66 621.277 1596.66 625.869 1589.45 627.181H1551.39C1541.55 627.181 1540.9 622.589 1540.9 608.812V194.198C1540.9 191.574 1540.9 188.294 1541.55 185.013C1541.55 181.077 1543.52 179.109 1548.11 178.453H1586.82C1594.04 179.109 1595.35 180.421 1595.35 187.638C1596.01 190.918 1596.01 193.542 1596.01 196.822V360.831C1596.01 372.64 1596.66 373.296 1599.94 374.608C1605.19 374.608 1605.85 370.671 1607.81 363.455C1630.12 275.546 1643.24 221.751 1651.77 190.262C1651.77 184.357 1655.7 179.109 1659.64 178.453H1697.69C1702.94 178.453 1706.88 178.453 1706.88 184.357C1706.88 185.669 1706.88 188.294 1705.56 190.262C1690.47 253.897 1668.17 340.494 1655.05 392.321C1654.39 395.601 1653.74 399.537 1653.74 402.817C1653.74 406.097 1654.39 409.378 1655.05 413.314C1669.48 468.421 1689.82 550.425 1706.88 618.653V620.621C1706.88 624.557 1705.56 626.525 1699.66 626.525H1664.89V627.181Z" fill="#52583F"/>
<path d="M1910.25 627.181C1903.69 627.181 1903.03 620.621 1903.03 610.124V436.931C1903.03 431.683 1897.13 430.371 1894.5 430.371H1853.17C1849.89 430.371 1845.96 432.339 1844.65 436.275V612.748C1844.65 621.933 1844.65 625.869 1838.09 627.181H1800.04C1793.48 627.181 1791.51 627.181 1790.2 621.277V188.95C1790.2 183.045 1791.51 179.109 1798.07 178.453H1831.53C1842.02 178.453 1843.99 179.109 1844.65 186.326V368.703C1845.3 373.296 1846.61 374.608 1851.21 375.264H1893.19C1901.07 375.264 1902.38 374.608 1903.03 368.703V194.854C1903.03 191.574 1903.03 188.95 1903.69 185.67C1903.69 181.077 1905.66 179.109 1910.25 178.453H1947.64C1956.17 178.453 1957.48 180.421 1958.14 188.294V611.436C1958.14 614.717 1958.14 617.341 1957.48 620.621C1957.48 625.213 1955.52 627.181 1950.92 627.181H1910.25Z" fill="#52583F"/>
<path d="M2082.14 631.795C2028.34 631.795 1997.51 589.809 1997.51 537.982V264.416C1997.51 259.167 1997.51 253.263 1998.82 247.359C2004.07 204.716 2040.81 173.883 2082.14 173.227C2126.75 173.227 2166.11 208.652 2167.42 256.543V548.479C2166.11 594.401 2129.37 631.139 2083.45 631.795H2082.14ZM2111.66 549.791V264.416C2111.66 245.39 2103.79 229.646 2083.45 229.646C2069.02 229.646 2055.89 239.486 2053.27 255.231V539.95C2053.27 560.287 2059.83 577.344 2082.79 577.344C2097.88 577.344 2110.35 565.536 2111.66 549.791Z" fill="#52583F"/>
<path d="M2332.75 627.181C2324.88 627.181 2322.91 626.525 2321.6 621.277V474.325C2321.6 449.396 2315.69 430.371 2280.27 430.371L2269.11 431.027C2264.52 431.027 2262.55 432.995 2262.55 437.587V610.78C2262.55 621.277 2262.55 625.869 2255.34 627.181H2217.94C2211.38 627.181 2207.45 627.181 2207.45 617.341V186.982C2208.1 180.421 2210.07 179.109 2216.63 178.453H2294.7C2338.65 178.453 2377.36 209.287 2377.36 265.05V345.086C2377.36 362.143 2373.42 379.856 2363.58 394.945C2362.93 395.601 2359.65 399.537 2359.65 403.473C2359.65 404.785 2359.65 406.097 2360.3 407.409C2369.49 416.594 2376.7 440.867 2377.36 453.988V612.748C2377.36 624.557 2377.36 625.869 2370.14 627.181H2332.75ZM2321.6 336.558V272.266C2321.6 244.713 2306.51 233.56 2282.23 233.56L2267.8 234.216C2264.52 234.872 2263.21 236.184 2262.55 239.464V363.455C2262.55 372.64 2262.55 375.92 2270.42 375.92H2290.76C2313.07 373.952 2321.6 356.239 2321.6 336.558Z" fill="#52583F"/>
<path d="M2438.37 608.147C2412.13 581.906 2412.13 564.849 2412.13 514.334V482.188C2412.13 469.724 2412.79 467.756 2420.66 467.756H2456.09C2462.65 467.756 2465.93 467.756 2466.58 473.66V539.919C2466.58 562.881 2477.74 576.658 2496.76 576.658C2510.54 576.658 2523.66 565.505 2525.63 550.416V513.022C2525.63 498.589 2521.03 484.812 2512.51 473.004L2427.88 361.478C2419.35 350.325 2414.1 338.517 2412.13 324.74L2411.48 257.824C2412.79 208.622 2454.12 174.508 2496.76 174.508C2540.72 174.508 2578.11 209.278 2580.73 256.512V332.612C2580.08 337.205 2578.77 339.173 2574.17 339.173H2536.78C2530.22 339.173 2526.94 339.173 2526.28 331.956V266.353C2526.28 246.016 2517.75 230.927 2496.76 230.927C2479.05 230.927 2469.86 243.392 2467.24 261.105C2467.24 273.569 2467.24 285.378 2467.9 297.186C2467.9 311.619 2473.14 324.74 2481.67 335.893C2505.29 367.382 2528.91 398.872 2553.18 431.018C2566.96 449.387 2580.73 466.444 2580.73 493.997V550.416C2579.42 599.619 2540.06 633.076 2496.76 633.076C2475.77 631.764 2454.12 623.892 2438.37 608.147Z" fill="#52583F"/>
<path d="M2634.52 627.181C2622.05 627.181 2620.74 627.181 2620.74 613.404V194.854C2620.74 179.765 2620.74 178.453 2633.86 178.453H2776.22C2786.06 178.453 2789.34 178.453 2789.34 189.606V222.407C2789.34 230.936 2789.34 232.904 2776.22 232.904H2689.63C2677.82 232.904 2675.19 232.904 2675.19 244.713V364.111C2675.19 373.952 2675.85 375.264 2688.31 375.264H2746.04C2755.89 375.264 2759.17 375.264 2759.17 385.76V419.218C2759.17 427.746 2758.51 429.715 2746.7 429.715H2688.31C2677.82 429.715 2675.19 429.715 2675.19 441.523V560.266C2675.19 570.762 2675.85 572.074 2689.63 572.074H2775.57C2786.06 572.074 2789.34 572.074 2789.34 583.227V616.029C2789.34 625.213 2788.03 626.525 2778.85 626.525H2634.52V627.181Z" fill="#52583F"/>
<path d="M962.279 765.224C956.999 765.224 952.472 763.715 947.946 761.452C943.42 759.189 940.402 755.417 938.139 751.645C935.876 747.118 934.367 742.592 934.367 736.557C934.367 731.276 935.876 725.996 938.139 721.469C940.402 716.943 943.42 713.926 947.946 711.663C951.718 709.399 956.999 707.891 962.279 707.891C966.051 707.891 969.823 708.645 972.841 710.154C975.858 711.662 978.876 713.171 981.139 715.434C983.402 717.698 985.665 720.715 987.174 723.732L977.367 727.504C976.613 725.241 975.104 723.733 973.595 722.224C972.086 720.715 970.578 719.961 968.314 718.452C966.051 717.698 964.543 716.943 962.279 716.943C959.262 716.943 956.244 717.698 953.981 719.206C951.718 720.715 949.455 722.978 947.946 725.996C946.437 729.013 945.683 732.031 945.683 735.803C945.683 739.575 946.437 742.592 947.946 745.61C949.455 748.627 951.718 750.89 953.981 752.399C956.244 753.908 959.262 754.662 963.034 754.662C965.297 754.662 967.56 753.908 969.069 753.154C970.578 752.399 972.841 750.89 974.35 749.382C975.858 747.873 976.613 746.364 978.121 744.101L987.928 747.873C986.42 750.89 984.911 753.908 982.648 756.171C980.385 758.434 977.367 760.697 974.35 762.206C969.823 764.469 966.051 765.224 962.279 765.224Z" fill="#52583F"/>
<path d="M1042.21 763.672L1064.09 708.602H1074.65L1053.53 763.672H1042.21ZM1052.77 742.549H1087.47V752.356H1052.77V742.549ZM1085.97 763.672L1064.84 708.602H1075.4L1097.28 763.672H1085.97Z" fill="#52583F"/>
<path d="M1156.14 763.672V708.602H1167.46L1194.61 745.567V708.602H1205.18V763.672H1194.61L1166.7 725.953V763.672H1156.14Z" fill="#52583F"/>
<path d="M1269.3 763.672V708.602H1280.61L1307.77 745.567V708.602H1318.33V763.672H1307.77L1280.61 725.953V763.672H1269.3Z" fill="#52583F"/>
<path d="M1377.21 763.672L1399.09 708.602H1409.65L1388.53 763.672H1377.21ZM1387.77 742.549H1422.47V752.356H1387.77V742.549ZM1420.97 763.672L1399.84 708.602H1410.4L1432.28 763.672H1420.97Z" fill="#52583F"/>
<path d="M1491.84 763.672V708.602H1510.7C1514.48 708.602 1517.49 709.356 1520.51 710.11C1523.53 711.619 1525.79 713.128 1527.3 715.391C1528.81 717.654 1529.56 720.672 1529.56 724.444C1529.56 726.707 1528.81 728.97 1528.05 730.479C1527.3 731.988 1525.79 733.496 1523.53 735.005C1525.79 736.514 1528.05 738.023 1529.56 740.286C1531.07 742.549 1531.83 744.812 1531.83 747.83C1531.83 750.847 1531.07 753.865 1529.56 756.128C1528.05 758.391 1525.79 760.654 1523.53 761.408C1520.51 762.917 1517.49 762.917 1513.72 762.917H1491.84V763.672ZM1502.41 731.233H1510.7C1512.97 731.233 1515.23 730.479 1515.98 729.724C1517.49 728.216 1518.25 726.707 1518.25 724.444C1518.25 722.181 1517.49 720.672 1515.98 719.163C1514.48 717.654 1512.21 717.654 1509.95 717.654H1502.41V731.233ZM1502.41 754.619H1512.21C1514.48 754.619 1516.74 753.865 1518.25 752.356C1519.76 750.847 1520.51 749.338 1520.51 747.075C1520.51 744.812 1519.76 743.303 1518.25 741.795C1516.74 740.286 1514.48 739.531 1511.46 739.531H1502.41V754.619Z" fill="#52583F"/>
<path d="M1602.77 708.602H1592.21V763.672H1602.77V708.602Z" fill="#52583F"/>
<path d="M1685.71 765.224C1682.69 765.224 1680.43 765.224 1678.16 764.469C1675.9 763.715 1673.64 762.96 1671.38 761.452C1669.11 759.943 1667.6 759.189 1666.85 756.926C1665.34 755.417 1664.59 753.908 1664.59 752.399L1675.15 749.382C1675.9 750.89 1677.41 752.399 1678.92 753.908C1680.43 755.417 1682.69 756.171 1685.71 756.171C1688.73 756.171 1690.99 755.417 1692.5 754.662C1694.01 753.153 1695.52 751.645 1695.52 750.136C1695.52 748.627 1694.76 747.119 1693.25 745.61C1691.74 744.101 1690.23 743.346 1687.22 742.592L1679.67 740.329C1676.66 739.575 1674.39 738.82 1672.88 737.312C1670.62 735.803 1669.11 734.294 1668.36 732.031C1666.85 729.768 1666.85 727.504 1666.85 724.487C1666.85 719.206 1668.36 715.434 1672.13 712.417C1675.9 709.399 1680.43 707.891 1686.46 707.891C1690.23 707.891 1693.25 708.645 1695.52 709.399C1698.53 710.154 1700.04 711.662 1702.31 713.926C1703.81 716.189 1705.32 717.697 1706.08 720.715L1695.52 723.732C1694.76 722.224 1694.01 720.715 1691.74 719.206C1690.23 717.698 1687.97 716.943 1685.71 716.943C1683.45 716.943 1681.18 717.698 1679.67 718.452C1678.16 719.961 1677.41 721.469 1677.41 723.732C1677.41 725.241 1678.16 726.75 1678.92 727.504C1680.43 728.259 1681.94 729.013 1683.45 729.768L1690.99 731.276C1695.52 732.785 1699.29 734.294 1702.31 737.312C1704.57 740.329 1706.08 743.347 1706.08 747.118C1706.08 750.136 1705.32 753.154 1703.81 755.417C1702.31 757.68 1700.04 759.943 1697.02 761.452C1693.25 764.469 1690.23 765.224 1685.71 765.224Z" fill="#52583F"/>
<path d="M1838.09 763.672V708.602H1855.44C1860.73 708.602 1866.01 710.11 1870.53 712.373C1875.06 714.637 1878.08 717.654 1881.09 722.181C1883.36 725.953 1884.87 731.233 1884.87 736.514C1884.87 741.795 1883.36 746.321 1881.09 750.847C1878.83 755.373 1875.06 758.391 1870.53 760.654C1866.01 762.917 1861.48 764.426 1855.44 764.426H1838.09V763.672ZM1849.41 753.865H1856.2C1858.46 753.865 1860.73 753.11 1862.99 752.356C1865.25 751.602 1866.76 750.093 1868.27 748.584C1869.78 747.075 1871.29 744.812 1872.04 743.303C1872.8 741.04 1873.55 738.777 1873.55 736.514C1873.55 734.251 1872.8 731.988 1872.04 729.724C1871.29 727.461 1869.78 725.952 1868.27 724.444C1866.76 722.935 1864.5 721.426 1862.99 720.672C1860.73 719.917 1858.46 719.163 1856.2 719.163H1849.41V753.865Z" fill="#52583F"/>
<path d="M1956.57 708.117H1946.01V763.187H1956.57V708.117Z" fill="#52583F"/>
<path d="M2039.57 764.739C2036.55 764.739 2034.29 764.739 2032.02 763.985C2029.76 763.231 2027.5 762.476 2025.23 760.967C2022.97 759.459 2021.46 758.704 2020.71 756.441C2019.2 754.932 2018.45 753.424 2018.45 751.915L2029.01 748.897C2029.76 750.406 2030.52 751.915 2032.78 753.423C2034.29 754.932 2036.55 755.687 2039.57 755.687C2042.59 755.687 2044.85 754.932 2046.36 754.178C2047.87 752.669 2049.38 751.16 2049.38 749.652C2049.38 748.143 2048.62 746.634 2047.11 745.125C2045.6 743.617 2044.09 742.862 2041.08 742.108L2033.53 739.845C2030.52 739.09 2028.25 738.336 2026.74 736.827C2024.48 735.318 2022.97 733.81 2022.22 731.546C2020.71 729.283 2020.71 727.02 2020.71 724.003C2020.71 718.722 2022.22 714.95 2025.99 711.932C2029.76 708.915 2034.29 707.406 2040.32 707.406C2044.09 707.406 2047.11 708.16 2049.38 708.915C2052.39 709.669 2053.9 711.178 2056.16 713.441C2057.67 715.704 2059.18 717.213 2059.94 720.231L2049.38 723.248C2048.62 721.739 2047.87 720.231 2045.6 718.722C2044.09 717.213 2041.83 716.459 2039.57 716.459C2036.55 716.459 2035.04 717.213 2033.53 717.968C2032.02 719.476 2031.27 720.985 2031.27 723.248C2031.27 724.757 2032.02 726.266 2032.78 727.02C2034.29 727.774 2035.8 728.529 2037.3 729.283L2044.85 730.792C2049.38 732.301 2053.15 733.81 2056.16 736.827C2058.43 739.845 2059.94 742.862 2059.94 746.634C2059.94 749.652 2059.18 752.669 2057.67 754.932C2056.16 757.195 2053.9 759.459 2050.88 760.967C2047.11 763.985 2044.09 764.739 2039.57 764.739Z" fill="#52583F"/>
<path d="M2120.98 763.187V708.117H2141.35C2145.12 708.117 2148.9 708.872 2151.91 710.38C2154.93 711.889 2157.19 714.152 2158.7 717.17C2160.21 720.187 2160.97 723.205 2160.97 726.977C2160.97 730.749 2160.21 733.766 2158.7 736.784C2157.19 739.801 2154.93 742.065 2151.91 743.573C2148.9 745.082 2145.88 745.836 2142.11 745.836H2131.55V763.942H2120.98V763.187ZM2132.3 735.275H2142.86C2145.12 735.275 2147.39 734.521 2148.9 733.012C2150.41 731.503 2151.16 729.24 2151.16 726.977C2151.16 724.714 2150.41 722.451 2148.9 720.942C2147.39 719.433 2145.12 718.679 2142.11 718.679H2132.3V735.275Z" fill="#52583F"/>
<path d="M2221.35 763.187V708.117H2256.05V717.924H2231.91V730.749H2253.04V740.556H2231.91V753.38H2256.05V763.187H2221.35Z" fill="#52583F"/>
<path d="M2319.43 763.187V708.117H2330.75L2357.9 745.082V708.117H2369.22V763.187H2357.9L2330.75 725.468V763.187H2319.43Z" fill="#52583F"/>
<path d="M2451.4 764.739C2448.39 764.739 2446.12 764.739 2443.86 763.985C2441.6 763.231 2439.33 762.476 2437.07 760.967C2434.81 759.459 2433.3 758.704 2432.54 756.441C2431.04 754.932 2430.28 753.424 2430.28 751.915L2440.84 748.897C2441.6 750.406 2442.35 751.915 2444.61 753.423C2446.12 754.932 2448.39 755.687 2451.4 755.687C2454.42 755.687 2456.68 754.932 2458.19 754.178C2459.7 752.669 2461.21 751.16 2461.21 749.652C2461.21 748.143 2460.46 746.634 2458.95 745.125C2457.44 743.617 2455.93 742.862 2452.91 742.108L2445.37 739.845C2442.35 739.09 2440.09 738.336 2438.58 736.827C2436.32 735.318 2434.81 733.81 2434.05 731.546C2432.54 729.283 2432.54 727.02 2432.54 724.003C2432.54 718.722 2434.05 714.95 2437.83 711.932C2441.6 708.915 2446.12 707.406 2452.16 707.406C2455.93 707.406 2458.95 708.16 2461.21 708.915C2464.23 709.669 2465.74 711.178 2468 713.441C2469.51 715.704 2471.02 717.213 2471.77 720.231L2461.21 723.248C2460.46 721.739 2459.7 720.231 2457.44 718.722C2455.93 717.213 2453.67 716.459 2451.4 716.459C2448.39 716.459 2446.88 717.213 2445.37 717.968C2443.86 719.476 2443.11 720.985 2443.11 723.248C2443.11 724.757 2443.86 726.266 2444.61 727.02C2446.12 727.774 2447.63 728.529 2449.14 729.283L2456.68 730.792C2461.21 732.301 2464.98 733.81 2468 736.827C2470.26 739.845 2471.77 742.862 2471.77 746.634C2471.77 749.652 2471.02 752.669 2469.51 754.932C2468 757.195 2465.74 759.459 2462.72 760.967C2459.7 763.985 2455.93 764.739 2451.4 764.739Z" fill="#52583F"/>
<path d="M2527.64 763.187L2549.52 708.117H2560.08L2538.96 763.187H2527.64ZM2538.2 742.064H2572.9V751.872H2538.2V742.064ZM2571.39 763.187L2550.27 708.117H2560.83L2582.71 763.187H2571.39Z" fill="#52583F"/>
<path d="M2642.27 763.187V708.117H2662.64C2666.41 708.117 2670.19 708.872 2673.2 710.38C2676.22 711.889 2678.48 714.152 2679.99 716.415C2681.5 719.433 2682.26 722.451 2682.26 725.468C2682.26 729.24 2681.5 732.257 2679.24 734.521C2677.73 737.538 2674.71 739.047 2671.69 740.556C2668.68 742.065 2664.9 742.819 2661.13 742.819H2652.08V762.433H2642.27V763.187ZM2652.83 733.766H2662.64C2664.15 733.766 2665.66 733.766 2667.17 733.012C2668.68 732.258 2669.43 731.503 2670.19 729.994C2670.94 728.486 2671.69 727.731 2671.69 726.223C2671.69 723.959 2670.94 721.696 2669.43 720.187C2667.92 718.679 2665.66 717.924 2662.64 717.924H2653.59V733.766H2652.83ZM2672.45 763.187L2659.62 741.31L2667.92 735.275L2684.52 763.187H2672.45Z" fill="#52583F"/>
<path d="M2759.19 740.556L2739.58 708.117H2751.65L2769.75 738.293L2759.19 740.556ZM2759.19 736.784H2769.75V763.187H2759.19V736.784ZM2769.75 740.556L2759.19 738.293L2777.3 708.117H2789.37L2769.75 740.556Z" fill="#52583F"/>
</svg>
