<svg width="2790" height="939" viewBox="0 0 2790 939" fill="none" xmlns="http://www.w3.org/2000/svg">
<path d="M381.452 0.3125C441.579 97.7602 508.445 205.575 484.083 323.756C482.528 329.976 479.418 337.233 474.234 340.343C445.207 357.966 424.992 381.81 402.704 406.69C404.777 359.521 400.112 315.981 379.378 275.032C358.645 315.981 353.98 359.521 356.572 407.727C333.765 371.443 293.853 359.003 275.192 322.719C253.422 206.093 315.623 92.5768 381.452 0.3125Z" fill="#F7F5E1"/>
<path d="M540.048 454.382C610.542 397.365 696.068 442.979 757.232 489.629C693.994 532.133 591.363 562.197 535.383 494.294C563.373 495.331 588.253 491.703 611.579 473.561C587.217 461.639 568.038 456.974 540.048 454.382Z" fill="#F7F5E1"/>
<path d="M623.041 651.301C579.5 629.531 517.3 612.944 516.781 553.854C530.776 561.629 544.253 568.885 557.73 576.142C558.767 575.105 549.437 546.597 538.033 535.193C597.124 532.602 623.041 613.981 623.041 651.301Z" fill="#F7F5E1"/>
<path d="M513.116 638.406C525.557 675.208 556.139 730.152 548.363 764.881C501.195 826.563 452.471 886.172 392.343 936.451C353.986 958.74 247.209 812.568 221.292 781.986C192.783 739.482 230.622 685.575 243.58 639.443C251.874 687.648 295.414 708.382 307.854 753.477C311.483 789.761 252.91 790.279 305.781 844.705C308.373 847.297 311.483 849.37 310.964 854.035C313.038 900.686 395.972 896.021 426.554 880.989C438.476 875.805 448.842 869.067 446.769 853.517C445.732 846.26 451.952 844.705 455.581 841.077C479.424 819.825 480.461 799.091 456.617 778.358C422.407 738.446 508.451 679.873 513.116 638.406Z" fill="#F7F5E1"/>
<path d="M432.803 602.106C434.876 549.754 506.407 547.68 491.375 502.585C482.563 472.003 461.311 418.096 439.541 395.807C436.431 393.734 433.321 395.807 431.248 398.399C400.147 425.353 400.147 465.265 422.436 499.475C376.822 490.145 383.042 451.788 349.869 438.829C350.905 450.751 356.607 461.118 361.79 474.076C332.245 461.118 315.14 437.793 306.846 411.357C208.362 582.409 298.553 502.067 323.433 603.143C288.705 594.849 267.971 571.006 257.086 537.314C268.489 690.742 268.489 621.803 325.507 732.727C332.245 715.104 328.617 698.517 330.172 682.449C338.465 710.439 351.424 762.273 330.69 785.08C291.815 813.07 321.878 822.918 337.947 848.835C335.355 863.349 345.722 864.904 354.534 868.014C373.194 873.197 406.886 875.271 417.253 857.647C420.881 826.547 469.605 817.217 427.101 786.116C401.702 765.383 418.289 709.402 426.064 680.894C428.138 697.48 425.028 714.067 430.211 734.801C477.898 630.615 491.375 686.595 497.595 540.424C487.228 572.561 466.495 593.813 432.803 602.106ZM344.685 823.955C341.057 817.217 326.543 813.588 341.057 801.148C343.648 809.442 347.277 816.18 344.685 823.955ZM347.795 566.859C342.093 555.974 337.428 546.125 332.763 536.277C344.685 541.979 352.979 550.272 347.795 566.859ZM417.771 803.221C432.803 808.923 417.771 819.808 412.069 828.62C408.959 820.845 413.106 816.18 413.624 810.996C414.661 807.886 414.143 803.74 417.771 803.221ZM412.588 565.822C405.849 549.235 416.216 540.942 429.693 529.539C422.436 544.052 417.771 553.9 412.588 565.822Z" fill="#F7F5E1"/>
<path d="M703.315 189.484C617.789 231.47 497.016 264.643 495.461 379.715C522.933 364.683 548.85 350.688 574.767 336.174C576.84 338.766 558.698 393.71 536.41 416.517C657.701 418.072 700.723 266.199 703.315 189.484Z" fill="#F7F5E1"/>
<path d="M217.184 468.32C146.69 411.303 61.164 456.916 0 503.567C63.2373 546.071 165.868 576.134 221.849 508.232C193.859 509.269 168.978 505.64 145.653 487.498C169.497 476.095 189.194 470.912 217.184 468.32Z" fill="#F7F5E1"/>
<path d="M133.719 665.845C177.259 644.075 239.46 627.488 239.978 568.397C225.983 576.172 196.956 588.094 195.919 586.539C199.548 572.544 207.323 560.622 218.726 549.219C159.636 547.145 134.237 628.524 133.719 665.845Z" fill="#F7F5E1"/>
<path d="M53.3516 204.039C138.877 246.025 259.65 279.198 261.205 394.269C233.733 379.238 207.817 365.242 181.9 350.729C179.826 353.321 197.968 408.265 220.257 431.071C99.4837 432.626 55.9433 280.753 53.3516 204.039Z" fill="#F7F5E1"/>
<path d="M945.887 627.494C937.359 627.494 935.39 626.838 934.734 620.277V195.167C934.734 191.886 934.734 188.606 935.39 185.326C935.39 181.39 937.359 179.422 941.951 178.766H1021.99C1067.91 178.766 1102.02 212.879 1103.99 258.146V550.082C1102.68 592.724 1067.91 627.494 1024.61 628.15H945.887V627.494ZM1048.88 542.865V271.923C1048.88 246.337 1036.42 233.873 1009.52 233.873C991.809 233.873 989.841 235.185 989.841 248.305V560.578C989.841 562.546 989.841 565.17 990.497 567.794C990.497 573.043 995.09 573.043 1011.49 573.043H1018.05C1034.45 571.731 1047.57 559.266 1048.88 542.865Z" fill="#F7F5E1"/>
<path d="M1268.63 627.494C1262.07 626.838 1260.76 625.526 1259.45 619.621L1255.51 576.979C1254.2 567.795 1252.89 566.482 1243.71 566.482H1199.09C1187.94 566.482 1187.29 569.763 1187.29 573.043V573.699L1182.69 618.965C1182.04 625.526 1180.07 627.494 1173.51 627.494H1139.4C1132.18 627.494 1130.21 626.182 1130.21 621.589L1180.73 186.638C1181.38 180.078 1183.35 178.766 1189.91 178.766H1251.58C1258.79 178.766 1260.76 180.078 1261.42 187.294L1311.93 617.653C1311.93 623.557 1311.93 626.838 1306.68 626.838C1303.4 627.494 1300.12 627.494 1297.5 627.494H1268.63ZM1247.64 508.095C1247.64 501.535 1245.02 481.198 1245.02 481.198C1231.24 345.399 1227.3 317.845 1224.02 281.763C1224.02 280.451 1223.37 273.235 1221.4 273.235C1218.78 273.235 1218.12 279.795 1218.12 281.107L1199.75 458.237C1197.78 471.357 1193.85 493.663 1193.85 507.439C1193.85 512.688 1196.47 514 1202.37 514H1240.42C1245.67 514 1247.64 512.688 1247.64 508.095Z" fill="#F7F5E1"/>
<path d="M1458.27 627.494C1450.4 627.494 1448.43 626.838 1447.12 621.589V474.638C1447.12 449.708 1441.21 430.683 1405.79 430.683L1394.64 431.339C1390.04 431.339 1388.08 433.307 1388.08 437.9V611.093C1388.08 621.589 1388.08 626.182 1380.86 627.494H1343.47C1336.9 627.494 1332.97 627.494 1332.97 617.653V187.294C1333.62 180.734 1335.59 179.422 1342.15 178.766H1420.22C1464.18 178.766 1502.88 209.599 1502.88 265.362V345.399C1502.88 362.455 1498.95 380.168 1489.11 395.257C1488.45 395.913 1485.17 399.85 1485.17 403.786C1485.17 405.098 1485.17 406.41 1485.82 407.722C1495.01 416.906 1502.23 441.18 1502.88 454.3V613.061C1502.88 624.87 1502.88 626.182 1495.67 627.494H1458.27ZM1447.12 336.87V272.579C1447.12 245.025 1432.03 233.873 1407.76 233.873L1393.32 234.529C1390.04 235.185 1388.73 236.497 1388.08 239.777V363.768C1388.08 372.952 1388.08 376.232 1395.95 376.232H1416.29C1437.93 374.264 1447.12 356.551 1447.12 336.87Z" fill="#F7F5E1"/>
<path d="M1664.89 627.494C1656.36 627.494 1654.39 626.182 1652.42 618.309C1645.21 584.195 1620.93 492.35 1608.47 443.148C1608.47 438.556 1605.85 431.995 1601.25 431.995C1597.97 431.995 1596.66 433.963 1596.66 439.212V611.093C1596.66 621.589 1596.66 626.182 1589.45 627.494H1551.39C1541.55 627.494 1540.9 622.901 1540.9 609.125V194.51C1540.9 191.886 1540.9 188.606 1541.55 185.326C1541.55 181.39 1543.52 179.422 1548.11 178.766H1586.82C1594.04 179.422 1595.35 180.734 1595.35 187.95C1596.01 191.23 1596.01 193.854 1596.01 197.135V361.143C1596.01 372.952 1596.66 373.608 1599.94 374.92C1605.19 374.92 1605.85 370.984 1607.81 363.768C1630.12 275.859 1643.24 222.064 1651.77 190.574C1651.77 184.67 1655.7 179.422 1659.64 178.766H1697.69C1702.94 178.766 1706.88 178.766 1706.88 184.67C1706.88 185.982 1706.88 188.606 1705.56 190.574C1690.47 254.21 1668.17 340.806 1655.05 392.633C1654.39 395.913 1653.74 399.849 1653.74 403.13C1653.74 406.41 1654.39 409.69 1655.05 413.626C1669.48 468.733 1689.82 550.738 1706.88 618.965V620.933C1706.88 624.87 1705.56 626.838 1699.66 626.838H1664.89V627.494Z" fill="#F7F5E1"/>
<path d="M1910.25 627.494C1903.69 627.494 1903.03 620.933 1903.03 610.437V437.243C1903.03 431.995 1897.13 430.683 1894.5 430.683H1853.17C1849.89 430.683 1845.96 432.651 1844.65 436.587V613.061C1844.65 622.245 1844.65 626.182 1838.09 627.494H1800.04C1793.48 627.494 1791.51 627.494 1790.2 621.589V189.262C1790.2 183.358 1791.51 179.422 1798.07 178.766H1831.53C1842.02 178.766 1843.99 179.422 1844.65 186.638V369.016C1845.3 373.608 1846.61 374.92 1851.21 375.576H1893.19C1901.07 375.576 1902.38 374.92 1903.03 369.016V195.167C1903.03 191.886 1903.03 189.262 1903.69 185.982C1903.69 181.39 1905.66 179.422 1910.25 178.766H1947.64C1956.17 178.766 1957.48 180.734 1958.14 188.606V611.749C1958.14 615.029 1958.14 617.653 1957.48 620.933C1957.48 625.526 1955.52 627.494 1950.92 627.494H1910.25Z" fill="#F7F5E1"/>
<path d="M2082.14 632.108C2028.34 632.108 1997.51 590.121 1997.51 538.295V264.728C1997.51 259.48 1997.51 253.575 1998.82 247.671C2004.07 205.029 2040.81 174.195 2082.14 173.539C2126.75 173.539 2166.11 208.965 2167.42 256.856V548.791C2166.11 594.714 2129.37 631.452 2083.45 632.108H2082.14ZM2111.66 550.103V264.728C2111.66 245.703 2103.79 229.958 2083.45 229.958C2069.02 229.958 2055.89 239.799 2053.27 255.543V540.263C2053.27 560.6 2059.83 577.657 2082.79 577.657C2097.88 577.657 2110.35 565.848 2111.66 550.103Z" fill="#F7F5E1"/>
<path d="M2332.75 627.494C2324.88 627.494 2322.91 626.838 2321.6 621.589V474.638C2321.6 449.708 2315.69 430.683 2280.27 430.683L2269.11 431.339C2264.52 431.339 2262.55 433.307 2262.55 437.9V611.093C2262.55 621.589 2262.55 626.182 2255.34 627.494H2217.94C2211.38 627.494 2207.45 627.494 2207.45 617.653V187.294C2208.1 180.734 2210.07 179.422 2216.63 178.766H2294.7C2338.65 178.766 2377.36 209.599 2377.36 265.362V345.399C2377.36 362.455 2373.42 380.168 2363.58 395.257C2362.93 395.913 2359.65 399.85 2359.65 403.786C2359.65 405.098 2359.65 406.41 2360.3 407.722C2369.49 416.906 2376.7 441.18 2377.36 454.3V613.061C2377.36 624.87 2377.36 626.182 2370.14 627.494H2332.75ZM2321.6 336.87V272.579C2321.6 245.025 2306.51 233.873 2282.23 233.873L2267.8 234.529C2264.52 235.185 2263.21 236.497 2262.55 239.777V363.768C2262.55 372.952 2262.55 376.232 2270.42 376.232H2290.76C2313.07 374.264 2321.6 356.551 2321.6 336.87Z" fill="#F7F5E1"/>
<path d="M2438.37 608.46C2412.13 582.218 2412.13 565.161 2412.13 514.647V482.501C2412.13 470.036 2412.79 468.068 2420.66 468.068H2456.09C2462.65 468.068 2465.93 468.068 2466.58 473.972V540.232C2466.58 563.193 2477.74 576.97 2496.76 576.97C2510.54 576.97 2523.66 565.817 2525.63 550.728V513.335C2525.63 498.902 2521.03 485.125 2512.51 473.316L2427.88 361.79C2419.35 350.638 2414.1 338.829 2412.13 325.052L2411.48 258.137C2412.79 208.934 2454.12 174.82 2496.76 174.82C2540.72 174.82 2578.11 209.59 2580.73 256.825V332.925C2580.08 337.517 2578.77 339.485 2574.17 339.485H2536.78C2530.22 339.485 2526.94 339.485 2526.28 332.269V266.665C2526.28 246.328 2517.75 231.239 2496.76 231.239C2479.05 231.239 2469.86 243.704 2467.24 261.417C2467.24 273.882 2467.24 285.69 2467.9 297.499C2467.9 311.932 2473.14 325.052 2481.67 336.205C2505.29 367.695 2528.91 399.184 2553.18 431.33C2566.96 449.699 2580.73 466.756 2580.73 494.31V550.728C2579.42 599.931 2540.06 633.389 2496.76 633.389C2475.77 632.077 2454.12 624.204 2438.37 608.46Z" fill="#F7F5E1"/>
<path d="M2634.52 627.494C2622.05 627.494 2620.74 627.494 2620.74 613.717V195.167C2620.74 180.078 2620.74 178.766 2633.86 178.766H2776.22C2786.06 178.766 2789.34 178.766 2789.34 189.918V222.72C2789.34 231.248 2789.34 233.217 2776.22 233.217H2689.63C2677.82 233.217 2675.19 233.217 2675.19 245.025V364.424C2675.19 374.264 2675.85 375.576 2688.31 375.576H2746.04C2755.89 375.576 2759.17 375.576 2759.17 386.073V419.531C2759.17 428.059 2758.51 430.027 2746.7 430.027H2688.31C2677.82 430.027 2675.19 430.027 2675.19 441.836V560.578C2675.19 571.075 2675.85 572.387 2689.63 572.387H2775.57C2786.06 572.387 2789.34 572.387 2789.34 583.539V616.341C2789.34 625.526 2788.03 626.838 2778.85 626.838H2634.52V627.494Z" fill="#F7F5E1"/>
<path d="M962.279 765.536C956.999 765.536 952.472 764.027 947.946 761.764C943.42 759.501 940.402 755.729 938.139 751.957C935.876 747.431 934.367 742.905 934.367 736.87C934.367 731.589 935.876 726.308 938.139 721.782C940.402 717.256 943.42 714.238 947.946 711.975C951.718 709.712 956.999 708.203 962.279 708.203C966.051 708.203 969.823 708.957 972.841 710.466C975.858 711.975 978.876 713.484 981.139 715.747C983.402 718.01 985.665 721.027 987.174 724.045L977.367 727.817C976.613 725.554 975.104 724.045 973.595 722.536C972.086 721.028 970.578 720.273 968.314 718.764C966.051 718.01 964.543 717.256 962.279 717.256C959.262 717.256 956.244 718.01 953.981 719.519C951.718 721.028 949.455 723.291 947.946 726.308C946.437 729.326 945.683 732.343 945.683 736.115C945.683 739.887 946.437 742.905 947.946 745.922C949.455 748.94 951.718 751.203 953.981 752.712C956.244 754.22 959.262 754.975 963.034 754.975C965.297 754.975 967.56 754.221 969.069 753.466C970.578 752.712 972.841 751.203 974.35 749.694C975.858 748.185 976.613 746.677 978.121 744.413L987.928 748.185C986.42 751.203 984.911 754.22 982.648 756.484C980.385 758.747 977.367 761.01 974.35 762.519C969.823 764.782 966.051 765.536 962.279 765.536Z" fill="#F7F5E1"/>
<path d="M1042.21 763.984L1064.09 708.914H1074.65L1053.53 763.984H1042.21ZM1052.77 742.861H1087.47V752.668H1052.77V742.861ZM1085.97 763.984L1064.84 708.914H1075.4L1097.28 763.984H1085.97Z" fill="#F7F5E1"/>
<path d="M1156.14 763.984V708.914H1167.46L1194.61 745.879V708.914H1205.18V763.984H1194.61L1166.7 726.265V763.984H1156.14Z" fill="#F7F5E1"/>
<path d="M1269.3 763.984V708.914H1280.61L1307.77 745.879V708.914H1318.33V763.984H1307.77L1280.61 726.265V763.984H1269.3Z" fill="#F7F5E1"/>
<path d="M1377.21 763.984L1399.09 708.914H1409.65L1388.53 763.984H1377.21ZM1387.77 742.861H1422.47V752.668H1387.77V742.861ZM1420.97 763.984L1399.84 708.914H1410.4L1432.28 763.984H1420.97Z" fill="#F7F5E1"/>
<path d="M1491.84 763.984V708.914H1510.7C1514.48 708.914 1517.49 709.669 1520.51 710.423C1523.53 711.932 1525.79 713.441 1527.3 715.704C1528.81 717.967 1529.56 720.984 1529.56 724.756C1529.56 727.019 1528.81 729.283 1528.05 730.791C1527.3 732.3 1525.79 733.809 1523.53 735.317C1525.79 736.826 1528.05 738.335 1529.56 740.598C1531.07 742.861 1531.83 745.125 1531.83 748.142C1531.83 751.16 1531.07 754.177 1529.56 756.44C1528.05 758.704 1525.79 760.967 1523.53 761.721C1520.51 763.23 1517.49 763.23 1513.72 763.23H1491.84V763.984ZM1502.41 731.546H1510.7C1512.97 731.546 1515.23 730.791 1515.98 730.037C1517.49 728.528 1518.25 727.019 1518.25 724.756C1518.25 722.493 1517.49 720.984 1515.98 719.476C1514.48 717.967 1512.21 717.967 1509.95 717.967H1502.41V731.546ZM1502.41 754.932H1512.21C1514.48 754.932 1516.74 754.177 1518.25 752.668C1519.76 751.16 1520.51 749.651 1520.51 747.388C1520.51 745.125 1519.76 743.616 1518.25 742.107C1516.74 740.598 1514.48 739.844 1511.46 739.844H1502.41V754.932Z" fill="#F7F5E1"/>
<path d="M1602.77 708.914H1592.21V763.984H1602.77V708.914Z" fill="#F7F5E1"/>
<path d="M1685.71 765.536C1682.69 765.536 1680.43 765.536 1678.16 764.782C1675.9 764.028 1673.64 763.273 1671.38 761.764C1669.11 760.255 1667.6 759.501 1666.85 757.238C1665.34 755.729 1664.59 754.22 1664.59 752.712L1675.15 749.694C1675.9 751.203 1677.41 752.712 1678.92 754.22C1680.43 755.729 1682.69 756.484 1685.71 756.484C1688.73 756.484 1690.99 755.729 1692.5 754.975C1694.01 753.466 1695.52 751.957 1695.52 750.448C1695.52 748.94 1694.76 747.431 1693.25 745.922C1691.74 744.414 1690.23 743.659 1687.22 742.905L1679.67 740.642C1676.66 739.887 1674.39 739.133 1672.88 737.624C1670.62 736.115 1669.11 734.606 1668.36 732.343C1666.85 730.08 1666.85 727.817 1666.85 724.799C1666.85 719.519 1668.36 715.747 1672.13 712.729C1675.9 709.712 1680.43 708.203 1686.46 708.203C1690.23 708.203 1693.25 708.957 1695.52 709.712C1698.53 710.466 1700.04 711.975 1702.31 714.238C1703.81 716.501 1705.32 718.01 1706.08 721.028L1695.52 724.045C1694.76 722.536 1694.01 721.028 1691.74 719.519C1690.23 718.01 1687.97 717.256 1685.71 717.256C1683.45 717.256 1681.18 718.01 1679.67 718.764C1678.16 720.273 1677.41 721.782 1677.41 724.045C1677.41 725.554 1678.16 727.063 1678.92 727.817C1680.43 728.571 1681.94 729.326 1683.45 730.08L1690.99 731.589C1695.52 733.098 1699.29 734.607 1702.31 737.624C1704.57 740.642 1706.08 743.659 1706.08 747.431C1706.08 750.448 1705.32 753.466 1703.81 755.729C1702.31 757.992 1700.04 760.255 1697.02 761.764C1693.25 764.782 1690.23 765.536 1685.71 765.536Z" fill="#F7F5E1"/>
<path d="M1838.09 763.984V708.914H1855.44C1860.73 708.914 1866.01 710.423 1870.53 712.686C1875.06 714.949 1878.08 717.967 1881.09 722.493C1883.36 726.265 1884.87 731.546 1884.87 736.826C1884.87 742.107 1883.36 746.633 1881.09 751.16C1878.83 755.686 1875.06 758.704 1870.53 760.967C1866.01 763.23 1861.48 764.739 1855.44 764.739H1838.09V763.984ZM1849.41 754.177H1856.2C1858.46 754.177 1860.73 753.423 1862.99 752.668C1865.25 751.914 1866.76 750.405 1868.27 748.897C1869.78 747.388 1871.29 745.125 1872.04 743.616C1872.8 741.353 1873.55 739.089 1873.55 736.826C1873.55 734.563 1872.8 732.3 1872.04 730.037C1871.29 727.774 1869.78 726.265 1868.27 724.756C1866.76 723.247 1864.5 721.739 1862.99 720.984C1860.73 720.23 1858.46 719.476 1856.2 719.476H1849.41V754.177Z" fill="#F7F5E1"/>
<path d="M1956.57 708.43H1946.01V763.5H1956.57V708.43Z" fill="#F7F5E1"/>
<path d="M2039.57 765.052C2036.55 765.052 2034.29 765.052 2032.02 764.298C2029.76 763.543 2027.5 762.789 2025.23 761.28C2022.97 759.771 2021.46 759.017 2020.71 756.754C2019.2 755.245 2018.45 753.736 2018.45 752.227L2029.01 749.21C2029.76 750.719 2030.52 752.227 2032.78 753.736C2034.29 755.245 2036.55 755.999 2039.57 755.999C2042.59 755.999 2044.85 755.245 2046.36 754.49C2047.87 752.982 2049.38 751.473 2049.38 749.964C2049.38 748.455 2048.62 746.947 2047.11 745.438C2045.6 743.929 2044.09 743.175 2041.08 742.42L2033.53 740.157C2030.52 739.403 2028.25 738.648 2026.74 737.14C2024.48 735.631 2022.97 734.122 2022.22 731.859C2020.71 729.596 2020.71 727.333 2020.71 724.315C2020.71 719.034 2022.22 715.262 2025.99 712.245C2029.76 709.227 2034.29 707.719 2040.32 707.719C2044.09 707.719 2047.11 708.473 2049.38 709.227C2052.39 709.982 2053.9 711.491 2056.16 713.754C2057.67 716.017 2059.18 717.526 2059.94 720.543L2049.38 723.561C2048.62 722.052 2047.87 720.543 2045.6 719.035C2044.09 717.526 2041.83 716.771 2039.57 716.771C2036.55 716.771 2035.04 717.526 2033.53 718.28C2032.02 719.789 2031.27 721.297 2031.27 723.561C2031.27 725.069 2032.02 726.578 2032.78 727.333C2034.29 728.087 2035.8 728.841 2037.3 729.596L2044.85 731.104C2049.38 732.613 2053.15 734.122 2056.16 737.14C2058.43 740.157 2059.94 743.175 2059.94 746.947C2059.94 749.964 2059.18 752.982 2057.67 755.245C2056.16 757.508 2053.9 759.771 2050.88 761.28C2047.11 764.297 2044.09 765.052 2039.57 765.052Z" fill="#F7F5E1"/>
<path d="M2120.98 763.5V708.43H2141.35C2145.12 708.43 2148.9 709.184 2151.91 710.693C2154.93 712.202 2157.19 714.465 2158.7 717.482C2160.21 720.5 2160.97 723.517 2160.97 727.289C2160.97 731.061 2160.21 734.079 2158.7 737.096C2157.19 740.114 2154.93 742.377 2151.91 743.886C2148.9 745.395 2145.88 746.149 2142.11 746.149H2131.55V764.254H2120.98V763.5ZM2132.3 735.588H2142.86C2145.12 735.588 2147.39 734.833 2148.9 733.324C2150.41 731.816 2151.16 729.552 2151.16 727.289C2151.16 725.026 2150.41 722.763 2148.9 721.254C2147.39 719.746 2145.12 718.991 2142.11 718.991H2132.3V735.588Z" fill="#F7F5E1"/>
<path d="M2221.35 763.5V708.43H2256.05V718.237H2231.91V731.061H2253.04V740.868H2231.91V753.693H2256.05V763.5H2221.35Z" fill="#F7F5E1"/>
<path d="M2319.43 763.5V708.43H2330.75L2357.9 745.395V708.43H2369.22V763.5H2357.9L2330.75 725.781V763.5H2319.43Z" fill="#F7F5E1"/>
<path d="M2451.4 765.052C2448.39 765.052 2446.12 765.052 2443.86 764.298C2441.6 763.543 2439.33 762.789 2437.07 761.28C2434.81 759.771 2433.3 759.017 2432.54 756.754C2431.04 755.245 2430.28 753.736 2430.28 752.227L2440.84 749.21C2441.6 750.719 2442.35 752.227 2444.61 753.736C2446.12 755.245 2448.39 755.999 2451.4 755.999C2454.42 755.999 2456.68 755.245 2458.19 754.49C2459.7 752.982 2461.21 751.473 2461.21 749.964C2461.21 748.455 2460.46 746.947 2458.95 745.438C2457.44 743.929 2455.93 743.175 2452.91 742.42L2445.37 740.157C2442.35 739.403 2440.09 738.648 2438.58 737.14C2436.32 735.631 2434.81 734.122 2434.05 731.859C2432.54 729.596 2432.54 727.333 2432.54 724.315C2432.54 719.034 2434.05 715.262 2437.83 712.245C2441.6 709.227 2446.12 707.719 2452.16 707.719C2455.93 707.719 2458.95 708.473 2461.21 709.227C2464.23 709.982 2465.74 711.491 2468 713.754C2469.51 716.017 2471.02 717.526 2471.77 720.543L2461.21 723.561C2460.46 722.052 2459.7 720.543 2457.44 719.035C2455.93 717.526 2453.67 716.771 2451.4 716.771C2448.39 716.771 2446.88 717.526 2445.37 718.28C2443.86 719.789 2443.11 721.297 2443.11 723.561C2443.11 725.069 2443.86 726.578 2444.61 727.333C2446.12 728.087 2447.63 728.841 2449.14 729.596L2456.68 731.104C2461.21 732.613 2464.98 734.122 2468 737.14C2470.26 740.157 2471.77 743.175 2471.77 746.947C2471.77 749.964 2471.02 752.982 2469.51 755.245C2468 757.508 2465.74 759.771 2462.72 761.28C2459.7 764.297 2455.93 765.052 2451.4 765.052Z" fill="#F7F5E1"/>
<path d="M2527.64 763.5L2549.52 708.43H2560.08L2538.96 763.5H2527.64ZM2538.2 742.377H2572.9V752.184H2538.2V742.377ZM2571.39 763.5L2550.27 708.43H2560.83L2582.71 763.5H2571.39Z" fill="#F7F5E1"/>
<path d="M2642.27 763.5V708.43H2662.64C2666.41 708.43 2670.19 709.184 2673.2 710.693C2676.22 712.202 2678.48 714.465 2679.99 716.728C2681.5 719.745 2682.26 722.763 2682.26 725.781C2682.26 729.553 2681.5 732.57 2679.24 734.833C2677.73 737.851 2674.71 739.36 2671.69 740.868C2668.68 742.377 2664.9 743.131 2661.13 743.131H2652.08V762.745H2642.27V763.5ZM2652.83 734.079H2662.64C2664.15 734.079 2665.66 734.079 2667.17 733.324C2668.68 732.57 2669.43 731.816 2670.19 730.307C2670.94 728.798 2671.69 728.044 2671.69 726.535C2671.69 724.272 2670.94 722.009 2669.43 720.5C2667.92 718.991 2665.66 718.237 2662.64 718.237H2653.59V734.079H2652.83ZM2672.45 763.5L2659.62 741.623L2667.92 735.588L2684.52 763.5H2672.45Z" fill="#F7F5E1"/>
<path d="M2759.19 740.868L2739.58 708.43H2751.65L2769.75 738.605L2759.19 740.868ZM2759.19 737.096H2769.75V763.5H2759.19V737.096ZM2769.75 740.868L2759.19 738.605L2777.3 708.43H2789.37L2769.75 740.868Z" fill="#F7F5E1"/>
</svg>
