<svg width="2569" height="666" viewBox="0 0 2569 666" fill="none" xmlns="http://www.w3.org/2000/svg">
<path d="M270.51 0C313.15 69.1064 360.569 145.565 343.293 229.374C342.19 233.785 339.984 238.932 336.308 241.137C315.724 253.635 301.388 270.544 285.581 288.188C287.052 254.738 283.743 223.861 269.04 194.821C254.336 223.861 251.028 254.738 252.866 288.924C236.692 263.192 208.388 254.37 195.155 228.639C179.716 145.932 223.827 65.4305 270.51 0Z" fill="#52583F"/>
<path d="M382.98 322.006C432.972 281.572 493.624 313.92 536.999 347.002C492.154 377.145 419.371 398.465 379.672 350.311C399.522 351.046 417.166 348.473 433.707 335.607C416.431 327.153 402.83 323.844 382.98 322.006Z" fill="#52583F"/>
<path d="M441.84 461.656C410.962 446.217 366.852 434.454 366.484 392.549C376.409 398.063 385.967 403.209 395.524 408.356C396.259 407.621 389.642 387.403 381.555 379.316C423.46 377.478 441.84 435.19 441.84 461.656Z" fill="#52583F"/>
<path d="M363.887 452.508C372.709 478.607 394.397 517.571 388.883 542.199C355.432 585.942 320.879 628.215 278.239 663.87C251.038 679.677 175.315 576.017 156.935 554.329C136.718 524.187 163.552 485.958 172.742 453.243C178.623 487.429 209.5 502.132 218.322 534.112C220.895 559.843 179.358 560.211 216.852 598.808C218.69 600.645 220.895 602.116 220.528 605.424C221.998 638.507 280.812 635.199 302.5 624.539C310.954 620.863 318.306 616.084 316.836 605.057C316.101 599.91 320.512 598.808 323.085 596.234C339.994 581.163 340.729 566.46 323.82 551.756C299.559 523.452 360.579 481.915 363.887 452.508Z" fill="#52583F"/>
<path d="M306.925 426.767C308.395 389.641 359.122 388.17 348.462 356.19C342.213 334.503 327.142 296.274 311.703 280.467C309.498 278.997 307.292 280.467 305.822 282.305C283.767 301.42 283.767 329.724 299.573 353.985C267.225 347.368 271.636 320.167 248.111 310.977C248.846 319.432 252.889 326.783 256.565 335.973C235.613 326.783 223.482 310.242 217.601 291.495C147.759 412.799 211.719 355.823 229.364 427.502C204.735 421.621 190.032 404.712 182.312 380.819C190.399 489.624 190.399 440.735 230.834 519.399C235.613 506.901 233.04 495.138 234.142 483.743C240.024 503.593 249.213 540.351 234.51 556.525C206.941 576.375 228.261 583.359 239.656 601.739C237.818 612.031 245.17 613.134 251.419 615.339C264.652 619.015 288.545 620.485 295.897 607.988C298.47 585.932 333.023 579.316 302.881 557.261C284.869 542.557 296.632 502.858 302.146 482.64C303.616 494.403 301.411 506.166 305.087 520.869C338.905 446.984 348.462 486.684 352.873 383.024C345.521 405.815 330.818 420.886 306.925 426.767ZM244.435 584.094C241.862 579.316 231.569 576.743 241.862 567.921C243.7 573.802 246.273 578.581 244.435 584.094ZM246.64 401.771C242.597 394.052 239.289 387.068 235.98 380.083C244.435 384.127 250.316 390.008 246.64 401.771ZM296.265 569.391C306.925 573.434 296.265 581.154 292.221 587.403C290.016 581.889 292.956 578.581 293.324 574.905C294.059 572.699 293.691 569.758 296.265 569.391ZM292.589 401.036C287.81 389.273 295.162 383.392 304.719 375.305C299.573 385.597 296.265 392.581 292.589 401.036Z" fill="#52583F"/>
<path d="M498.762 134.148C438.11 163.923 352.462 187.449 351.359 269.053C370.841 258.393 389.221 248.468 407.6 238.176C409.071 240.014 396.205 278.978 380.399 295.152C466.414 296.254 496.924 188.551 498.762 134.148Z" fill="#52583F"/>
<path d="M154.019 331.889C104.027 291.455 43.3753 323.802 0 356.885C44.8456 387.027 117.628 408.347 157.327 360.193C137.478 360.929 119.833 358.355 103.292 345.49C120.201 337.403 134.169 333.727 154.019 331.889Z" fill="#52583F"/>
<path d="M94.8281 471.969C125.705 456.53 169.816 444.768 170.184 402.863C160.259 408.376 139.674 416.831 138.939 415.728C141.512 405.803 147.026 397.349 155.112 389.262C113.207 387.792 95.1957 445.503 94.8281 471.969Z" fill="#52583F"/>
<path d="M37.8359 144.469C98.4878 174.243 184.136 197.769 185.238 279.373C165.756 268.713 147.377 258.788 128.998 248.496C127.527 250.334 140.393 289.298 156.199 305.472C70.5512 306.575 39.6739 198.872 37.8359 144.469Z" fill="#52583F"/>
<path d="M725.403 506.837C716.874 506.837 714.906 506.181 714.25 499.621V74.5103C714.25 71.2301 714.25 67.9499 714.906 64.6697C714.906 60.7335 716.874 58.7654 721.466 58.1094H801.503C847.425 58.1094 881.539 92.2232 883.507 137.49V429.425C882.195 472.068 847.425 506.837 804.127 507.493H725.403V506.837ZM828.4 422.209V151.266C828.4 125.681 815.935 113.216 789.038 113.216C771.325 113.216 769.357 114.528 769.357 127.649V439.922C769.357 441.89 769.357 444.514 770.013 447.138C770.013 452.386 774.605 452.387 791.006 452.387H797.566C813.967 451.074 827.088 438.61 828.4 422.209Z" fill="#52583F"/>
<path d="M1048.15 506.837C1041.59 506.181 1040.28 504.869 1038.97 498.965L1035.03 456.323C1033.72 447.138 1032.41 445.826 1023.22 445.826H978.61C967.458 445.826 966.802 449.106 966.802 452.387V453.043L962.209 498.309C961.553 504.869 959.585 506.837 953.025 506.837H918.911C911.695 506.837 909.727 505.525 909.727 500.933L960.241 65.9818C960.897 59.4214 962.865 58.1094 969.426 58.1094H1031.09C1038.31 58.1094 1040.28 59.4215 1040.93 66.6379L1091.45 496.997C1091.45 502.901 1091.45 506.181 1086.2 506.181C1082.92 506.837 1079.64 506.837 1077.02 506.837H1048.15ZM1027.16 387.439C1027.16 380.879 1024.53 360.542 1024.53 360.542C1010.76 224.742 1006.82 197.189 1003.54 161.107C1003.54 159.795 1002.88 152.578 1000.92 152.578C998.291 152.578 997.635 159.139 997.635 160.451L979.266 337.58C977.298 350.701 973.362 373.006 973.362 386.783C973.362 392.031 975.986 393.343 981.89 393.343H1019.94C1025.19 393.343 1027.16 392.031 1027.16 387.439Z" fill="#52583F"/>
<path d="M1237.79 506.837C1229.91 506.837 1227.95 506.181 1226.63 500.933V353.981C1226.63 329.052 1220.73 310.027 1185.3 310.027L1174.15 310.683C1169.56 310.683 1167.59 312.651 1167.59 317.243V490.437C1167.59 500.933 1167.59 505.525 1160.37 506.837H1122.98C1116.42 506.837 1112.48 506.837 1112.48 496.997V66.6379C1113.14 60.0775 1115.11 58.7654 1121.67 58.1094H1199.74C1243.69 58.1094 1282.4 88.943 1282.4 144.706V224.742C1282.4 241.799 1278.46 259.512 1268.62 274.601C1267.96 275.257 1264.68 279.193 1264.68 283.129C1264.68 284.442 1264.68 285.754 1265.34 287.066C1274.53 296.25 1281.74 320.523 1282.4 333.644V492.405C1282.4 504.213 1282.4 505.525 1275.18 506.837H1237.79ZM1226.63 216.214V151.922C1226.63 124.369 1211.55 113.216 1187.27 113.216L1172.84 113.872C1169.56 114.528 1168.25 115.84 1167.59 119.121V243.111C1167.59 252.296 1167.59 255.576 1175.46 255.576H1195.8C1217.45 253.608 1226.63 235.895 1226.63 216.214Z" fill="#52583F"/>
<path d="M1444.4 506.837C1435.88 506.837 1433.91 505.525 1431.94 497.653C1424.72 463.539 1400.45 371.694 1387.99 322.492C1387.99 317.899 1385.36 311.339 1380.77 311.339C1377.49 311.339 1376.18 313.307 1376.18 318.555V490.437C1376.18 500.933 1376.18 505.525 1368.96 506.837H1330.91C1321.07 506.837 1320.41 502.245 1320.41 488.469V73.8542C1320.41 71.23 1320.41 67.9499 1321.07 64.6697C1321.07 60.7335 1323.04 58.7654 1327.63 58.1094H1366.34C1373.55 58.7654 1374.86 60.0774 1374.86 67.2938C1375.52 70.574 1375.52 73.1982 1375.52 76.4784V240.487C1375.52 252.296 1376.18 252.952 1379.46 254.264C1384.71 254.264 1385.36 250.328 1387.33 243.111C1409.63 155.203 1422.76 101.408 1431.28 69.918C1431.28 64.0137 1435.22 58.7654 1439.16 58.1094H1477.21C1482.45 58.1094 1486.39 58.1093 1486.39 64.0137C1486.39 65.3257 1486.39 67.9499 1485.08 69.918C1469.99 133.553 1447.68 220.15 1434.56 271.977C1433.91 275.257 1433.25 279.193 1433.25 282.473C1433.25 285.754 1433.91 289.034 1434.56 292.97C1449 348.077 1469.33 430.081 1486.39 498.309V500.277C1486.39 504.213 1485.08 506.181 1479.17 506.181H1444.4V506.837Z" fill="#52583F"/>
<path d="M1689.77 506.837C1683.21 506.837 1682.55 500.277 1682.55 489.78V316.587C1682.55 311.339 1676.64 310.027 1674.02 310.027H1632.69C1629.41 310.027 1625.47 311.995 1624.16 315.931V492.405C1624.16 501.589 1624.16 505.525 1617.6 506.837H1579.55C1572.99 506.837 1571.02 506.837 1569.71 500.933V68.606C1569.71 62.7017 1571.02 58.7654 1577.58 58.1094H1611.04C1621.54 58.1094 1623.51 58.7654 1624.16 65.9818V248.36C1624.82 252.952 1626.13 254.264 1630.72 254.92H1672.71C1680.58 254.92 1681.89 254.264 1682.55 248.36V74.5103C1682.55 71.2301 1682.55 68.606 1683.21 65.3258C1683.21 60.7336 1685.17 58.7654 1689.77 58.1094H1727.16C1735.69 58.1094 1737 60.0775 1737.66 67.9499V491.093C1737.66 494.373 1737.66 496.997 1737 500.277C1737 504.869 1735.03 506.837 1730.44 506.837H1689.77Z" fill="#52583F"/>
<path d="M1861.65 511.451C1807.86 511.451 1777.02 469.465 1777.02 417.638V144.072C1777.02 138.823 1777.02 132.919 1778.34 127.015C1783.58 84.3725 1820.32 53.5388 1861.65 52.8828C1906.26 52.8828 1945.62 88.3087 1946.94 136.199V428.135C1945.62 474.057 1908.89 510.795 1862.96 511.451H1861.65ZM1891.17 429.447V144.072C1891.17 125.047 1883.3 109.302 1862.96 109.302C1848.53 109.302 1835.41 119.142 1832.79 134.887V419.607C1832.79 439.944 1839.35 457 1862.31 457C1877.4 457 1889.86 445.192 1891.17 429.447Z" fill="#52583F"/>
<path d="M2112.26 506.837C2104.39 506.837 2102.42 506.181 2101.11 500.933V353.981C2101.11 329.052 2095.21 310.027 2059.78 310.027L2048.63 310.683C2044.04 310.683 2042.07 312.651 2042.07 317.243V490.437C2042.07 500.933 2042.07 505.525 2034.85 506.837H1997.46C1990.9 506.837 1986.96 506.837 1986.96 496.997V66.6379C1987.62 60.0775 1989.59 58.7654 1996.15 58.1094H2074.21C2118.17 58.1094 2156.87 88.943 2156.87 144.706V224.742C2156.87 241.799 2152.94 259.512 2143.1 274.601C2142.44 275.257 2139.16 279.193 2139.16 283.129C2139.16 284.442 2139.16 285.754 2139.82 287.066C2149 296.25 2156.22 320.523 2156.87 333.644V492.405C2156.87 504.213 2156.87 505.525 2149.66 506.837H2112.26ZM2101.11 216.214V151.922C2101.11 124.369 2086.02 113.216 2061.75 113.216L2047.32 113.872C2044.04 114.528 2042.72 115.84 2042.07 119.121V243.111C2042.07 252.296 2042.07 255.576 2049.94 255.576H2070.28C2092.58 253.608 2101.11 235.895 2101.11 216.214Z" fill="#52583F"/>
<path d="M2217.89 487.803C2191.65 461.562 2191.65 444.505 2191.65 393.99V361.845C2191.65 349.38 2192.3 347.412 2200.18 347.412H2235.6C2242.16 347.412 2245.44 347.412 2246.1 353.316V419.576C2246.1 442.537 2257.25 456.314 2276.28 456.314C2290.05 456.314 2303.17 445.161 2305.14 430.072V392.678C2305.14 378.245 2300.55 364.469 2292.02 352.66L2207.39 241.134C2198.86 229.981 2193.62 218.173 2191.65 204.396L2190.99 137.481C2192.3 88.278 2233.63 54.1641 2276.28 54.1641C2320.23 54.1641 2357.63 88.9339 2360.25 136.168V212.269C2359.59 216.861 2358.28 218.829 2353.69 218.829H2316.29C2309.73 218.829 2306.45 218.829 2305.8 211.613V146.009C2305.8 125.672 2297.27 110.583 2276.28 110.583C2258.56 110.583 2249.38 123.048 2246.76 140.761C2246.76 153.225 2246.76 165.034 2247.41 176.843C2247.41 191.275 2252.66 204.396 2261.19 215.549C2284.81 247.038 2308.42 278.528 2332.7 310.674C2346.47 329.043 2360.25 346.1 2360.25 373.653V430.072C2358.94 479.275 2319.58 512.733 2276.28 512.733C2255.28 511.421 2233.63 503.548 2217.89 487.803Z" fill="#52583F"/>
<path d="M2414.03 506.837C2401.57 506.837 2400.26 506.837 2400.26 493.061V74.5103C2400.26 59.4214 2400.26 58.1094 2413.38 58.1094H2555.74C2565.58 58.1094 2568.86 58.1094 2568.86 69.262V102.064C2568.86 110.592 2568.86 112.56 2555.74 112.56H2469.14C2457.33 112.56 2454.71 112.56 2454.71 124.369V243.767C2454.71 253.608 2455.36 254.92 2467.83 254.92H2525.56C2535.4 254.92 2538.68 254.92 2538.68 265.417V298.874C2538.68 307.403 2538.03 309.371 2526.22 309.371H2467.83C2457.33 309.371 2454.71 309.371 2454.71 321.18V439.922C2454.71 450.418 2455.36 451.73 2469.14 451.73H2555.08C2565.58 451.73 2568.86 451.731 2568.86 462.883V495.685C2568.86 504.869 2567.55 506.181 2558.36 506.181H2414.03V506.837Z" fill="#52583F"/>
<path d="M714.125 610.805V555.734H731.476C736.757 555.734 742.037 557.243 746.564 559.506C751.09 561.769 754.107 564.787 757.125 569.313C759.388 573.085 760.897 578.366 760.897 583.647C760.897 588.927 759.388 593.454 757.125 597.98C754.862 602.506 751.09 605.524 746.564 607.787C742.037 610.05 737.511 611.559 731.476 611.559H714.125V610.805ZM725.441 600.997H732.23C734.493 600.997 736.757 600.243 739.02 599.489C741.283 598.734 742.792 597.226 744.3 595.717C745.809 594.208 747.318 591.945 748.072 590.436C748.827 588.173 749.581 585.91 749.581 583.647C749.581 581.384 748.827 579.12 748.072 576.857C747.318 574.594 745.809 573.085 744.3 571.576C742.792 570.068 740.528 568.559 739.02 567.805C736.757 567.05 734.493 566.296 732.23 566.296H725.441V600.997Z" fill="#52583F"/>
<path d="M931.46 557.555H920.898V612.625H931.46V557.555Z" fill="#52583F"/>
<path d="M1112.58 609.067C1109.57 609.067 1107.3 609.068 1105.04 608.313C1102.78 607.559 1100.51 606.804 1098.25 605.295C1095.99 603.787 1094.48 603.032 1093.72 600.769C1092.22 599.261 1091.46 597.752 1091.46 596.243L1102.02 593.225C1102.78 594.734 1103.53 596.243 1105.79 597.752C1107.3 599.26 1109.57 600.015 1112.58 600.015C1115.6 600.015 1117.86 599.26 1119.37 598.506C1120.88 596.997 1122.39 595.488 1122.39 593.98C1122.39 592.471 1121.64 590.962 1120.13 589.454C1118.62 587.945 1117.11 587.19 1114.09 586.436L1106.55 584.173C1103.53 583.418 1101.27 582.664 1099.76 581.155C1097.5 579.647 1095.99 578.138 1095.23 575.875C1093.72 573.611 1093.72 571.348 1093.72 568.331C1093.72 563.05 1095.23 559.278 1099 556.26C1102.78 553.243 1107.3 551.734 1113.34 551.734C1117.11 551.734 1120.13 552.489 1122.39 553.243C1125.41 553.997 1126.92 555.506 1129.18 557.769C1130.69 560.033 1132.2 561.541 1132.95 564.559L1122.39 567.576C1121.64 566.067 1120.88 564.559 1118.62 563.05C1117.11 561.541 1114.85 560.787 1112.58 560.787C1109.57 560.787 1108.06 561.541 1106.55 562.296C1105.04 563.804 1104.29 565.313 1104.29 567.576C1104.29 569.085 1105.04 570.594 1105.79 571.348C1107.3 572.103 1108.81 572.857 1110.32 573.611L1117.86 575.12C1122.39 576.629 1126.16 578.138 1129.18 581.155C1131.44 584.173 1132.95 587.19 1132.95 590.962C1132.95 593.98 1132.2 596.997 1130.69 599.26C1129.18 601.524 1126.92 603.787 1123.9 605.295C1120.13 608.313 1117.11 609.067 1112.58 609.067Z" fill="#52583F"/>
<path d="M1292.95 606.805V551.734H1313.32C1317.09 551.734 1320.87 552.489 1323.88 553.998C1326.9 555.506 1329.16 557.77 1330.67 560.787C1332.18 563.805 1332.94 566.822 1332.94 570.594C1332.94 574.366 1332.18 577.384 1330.67 580.401C1329.16 583.419 1326.9 585.682 1323.88 587.19C1320.87 588.699 1317.85 589.454 1314.08 589.454H1303.51V607.559H1292.95V606.805ZM1304.27 578.892H1314.83C1317.09 578.892 1319.36 578.138 1320.87 576.629C1322.37 575.12 1323.13 572.857 1323.13 570.594C1323.13 568.331 1322.37 566.068 1320.87 564.559C1319.36 563.05 1317.09 562.296 1314.08 562.296H1304.27V578.892Z" fill="#52583F"/>
<path d="M1492.94 611.805V556.734H1527.64V566.541H1503.5V579.366H1524.62V589.173H1503.5V601.997H1527.64V611.805H1492.94Z" fill="#52583F"/>
<path d="M1687.64 610.805V555.734H1698.96L1726.11 592.699V555.734H1737.43V610.805H1726.11L1698.96 573.085V610.805H1687.64Z" fill="#52583F"/>
<path d="M1918.55 611.067C1915.53 611.067 1913.27 611.068 1911.01 610.313C1908.75 609.559 1906.48 608.804 1904.22 607.295C1901.96 605.787 1900.45 605.032 1899.69 602.769C1898.18 601.261 1897.43 599.752 1897.43 598.243L1907.99 595.225C1908.75 596.734 1909.5 598.243 1911.76 599.752C1913.27 601.26 1915.53 602.015 1918.55 602.015C1921.57 602.015 1923.83 601.26 1925.34 600.506C1926.85 598.997 1928.36 597.488 1928.36 595.98C1928.36 594.471 1927.61 592.962 1926.1 591.454C1924.59 589.945 1923.08 589.19 1920.06 588.436L1912.52 586.173C1909.5 585.418 1907.24 584.664 1905.73 583.155C1903.46 581.647 1901.96 580.138 1901.2 577.875C1899.69 575.611 1899.69 573.348 1899.69 570.331C1899.69 565.05 1901.2 561.278 1904.97 558.26C1908.75 555.243 1913.27 553.734 1919.31 553.734C1923.08 553.734 1926.1 554.489 1928.36 555.243C1931.38 555.997 1932.89 557.506 1935.15 559.769C1936.66 562.033 1938.17 563.541 1938.92 566.559L1928.36 569.576C1927.6 568.067 1926.85 566.559 1924.59 565.05C1923.08 563.541 1920.82 562.787 1918.55 562.787C1915.53 562.787 1914.03 563.541 1912.52 564.296C1911.01 565.804 1910.25 567.313 1910.25 569.576C1910.25 571.085 1911.01 572.594 1911.76 573.348C1913.27 574.103 1914.78 574.857 1916.29 575.611L1923.83 577.12C1928.36 578.629 1932.13 580.138 1935.15 583.155C1937.41 586.173 1938.92 589.19 1938.92 592.962C1938.92 595.98 1938.17 598.997 1936.66 601.26C1935.15 603.524 1932.89 605.787 1929.87 607.295C1926.85 610.313 1923.08 611.067 1918.55 611.067Z" fill="#52583F"/>
<path d="M2098.92 609.805L2120.8 554.734H2131.36L2110.24 609.805H2098.92ZM2109.48 588.682H2144.18V598.489H2109.48V588.682ZM2142.68 609.805L2121.55 554.734H2132.11L2153.99 609.805H2142.68Z" fill="#52583F"/>
<path d="M2313.99 608.805V553.734H2334.36C2338.13 553.734 2341.9 554.489 2344.92 555.998C2347.94 557.506 2350.2 559.769 2351.71 562.033C2353.22 565.05 2353.97 568.068 2353.97 571.085C2353.97 574.857 2353.22 577.875 2350.96 580.138C2349.45 583.155 2346.43 584.664 2343.41 586.173C2340.4 587.682 2336.62 588.436 2332.85 588.436H2323.8V608.05H2313.99V608.805ZM2324.55 579.384H2334.36C2335.87 579.384 2337.38 579.384 2338.89 578.629C2340.4 577.875 2341.15 577.12 2341.9 575.612C2342.66 574.103 2343.41 573.349 2343.41 571.84C2343.41 569.577 2342.66 567.313 2341.15 565.805C2339.64 564.296 2337.38 563.541 2334.36 563.541H2325.31V579.384H2324.55ZM2344.17 608.805L2331.34 586.927L2339.64 580.892L2356.24 608.805H2344.17Z" fill="#52583F"/>
<path d="M2535.85 585.173L2516.23 552.734H2528.3L2546.41 582.91L2535.85 585.173ZM2535.85 581.401H2546.41V607.805H2535.85V581.401ZM2546.41 585.173L2535.85 582.91L2553.95 552.734H2566.02L2546.41 585.173Z" fill="#52583F"/>
</svg>
