<svg width="2619" height="725" viewBox="0 0 2619 725" fill="none" xmlns="http://www.w3.org/2000/svg">
<path d="M295.695 0.3125C342.306 75.4794 394.14 158.643 375.255 249.803C374.049 254.601 371.638 260.198 367.62 262.597C345.118 276.191 329.447 294.583 312.169 313.775C313.777 277.391 310.16 243.805 294.087 212.219C278.015 243.805 274.398 277.391 276.408 314.574C258.728 286.587 227.788 276.991 213.322 249.003C196.446 159.043 244.664 71.4812 295.695 0.3125Z" fill="#F7F5E1"/>
<path d="M418.64 350.565C473.287 306.584 539.587 341.769 587.001 377.753C537.98 410.539 458.42 433.729 415.023 381.352C436.722 382.151 456.009 379.352 474.091 365.359C455.205 356.163 440.338 352.564 418.64 350.565Z" fill="#F7F5E1"/>
<path d="M482.982 502.459C449.229 485.666 401.011 472.872 400.609 427.292C411.458 433.289 421.906 438.887 432.353 444.484C433.157 443.685 425.924 421.694 417.084 412.898C462.891 410.899 482.982 473.671 482.982 502.459Z" fill="#F7F5E1"/>
<path d="M397.774 492.516C407.418 520.903 431.125 563.284 425.098 590.073C388.532 637.652 350.761 683.632 304.15 722.414C274.416 739.607 191.642 626.857 171.551 603.267C149.451 570.481 178.784 528.9 188.829 493.315C195.258 530.499 229.011 546.492 238.654 581.277C241.467 609.264 196.062 609.664 237.047 651.646C239.056 653.645 241.467 655.244 241.065 658.842C242.672 694.827 306.963 691.228 330.67 679.633C339.912 675.635 347.949 670.437 346.341 658.443C345.538 652.845 350.36 651.646 353.172 648.847C371.656 632.454 372.459 616.461 353.976 600.468C327.456 569.682 394.158 524.502 397.774 492.516Z" fill="#F7F5E1"/>
<path d="M335.497 464.509C337.105 424.127 392.555 422.528 380.903 387.743C374.072 364.153 357.597 322.572 340.721 305.379C338.31 303.78 335.899 305.379 334.292 307.378C310.183 328.169 310.183 358.956 327.461 385.344C292.101 378.147 296.923 348.56 271.207 338.565C272.01 347.761 276.43 355.757 280.448 365.753C257.545 355.757 244.285 337.765 237.856 317.374C161.51 449.316 231.427 387.343 250.714 465.309C223.792 458.912 207.719 440.52 199.281 414.531C208.121 532.879 208.121 479.703 252.321 565.265C257.545 551.671 254.732 538.877 255.937 526.482C262.367 548.073 272.412 588.055 256.339 605.647C226.203 627.238 249.508 634.834 261.965 654.826C259.956 666.021 267.992 667.22 274.823 669.619C289.288 673.617 315.406 675.217 323.443 661.623C326.255 637.633 364.026 630.436 331.077 606.447C311.388 590.454 324.246 547.273 330.274 525.283C331.881 538.077 329.47 550.871 333.488 566.864C370.455 486.5 380.903 529.681 385.724 416.93C377.688 441.719 361.615 458.112 335.497 464.509ZM267.188 635.634C264.376 630.436 253.125 627.638 264.376 618.042C266.385 624.439 269.197 629.637 267.188 635.634ZM269.599 437.321C265.179 428.925 261.563 421.328 257.947 413.732C267.188 418.13 273.617 424.527 269.599 437.321ZM323.845 619.641C335.497 624.039 323.845 632.435 319.425 639.232C317.014 633.235 320.228 629.637 320.63 625.638C321.434 623.239 321.032 620.041 323.845 619.641ZM319.826 436.522C314.603 423.727 322.639 417.33 333.086 408.534C327.461 419.729 323.845 427.326 319.826 436.522Z" fill="#F7F5E1"/>
<path d="M545.207 146.234C478.907 178.62 385.284 204.209 384.078 292.97C405.374 281.375 425.465 270.58 445.556 259.385C447.163 261.384 433.1 303.765 415.822 321.357C509.847 322.557 543.198 205.408 545.207 146.234Z" fill="#F7F5E1"/>
<path d="M168.361 361.323C113.714 317.342 47.4144 352.527 0 388.511C49.0217 421.297 128.582 444.486 171.978 392.109C150.28 392.909 130.992 390.11 112.911 376.116C131.394 367.32 146.663 363.322 168.361 361.323Z" fill="#F7F5E1"/>
<path d="M103.656 513.678C137.409 496.885 185.627 484.091 186.029 438.511C175.18 444.508 152.678 453.704 151.874 452.505C154.687 441.71 160.714 432.514 169.554 423.717C123.747 422.118 104.058 484.891 103.656 513.678Z" fill="#F7F5E1"/>
<path d="M41.3516 157.461C107.651 189.847 201.275 215.435 202.48 304.196C181.184 292.601 161.093 281.806 141.002 270.611C139.395 272.61 153.459 314.992 170.737 332.584C77.1133 333.783 43.3606 216.635 41.3516 157.461Z" fill="#F7F5E1"/>
<path d="M775.41 536.337C766.882 536.337 764.914 535.681 764.258 529.121V104.01C764.258 100.73 764.258 97.4499 764.914 94.1697C764.914 90.2335 766.882 88.2654 771.474 87.6094H851.51C897.433 87.6094 931.547 121.723 933.515 166.99V458.925C932.203 501.568 897.433 536.337 854.135 536.993H775.41V536.337ZM878.408 451.709V180.766C878.408 155.181 865.943 142.716 839.046 142.716C821.333 142.716 819.365 144.028 819.365 157.149V469.422C819.365 471.39 819.365 474.014 820.021 476.638C820.021 481.886 824.613 481.887 841.014 481.887H847.574C863.975 480.574 877.096 468.11 878.408 451.709Z" fill="#F7F5E1"/>
<path d="M1098.16 536.337C1091.6 535.681 1090.29 534.369 1088.97 528.465L1085.04 485.823C1083.73 476.638 1082.41 475.326 1073.23 475.326H1028.62C1017.47 475.326 1016.81 478.606 1016.81 481.887V482.543L1012.22 527.809C1011.56 534.369 1009.59 536.337 1003.03 536.337H968.919C961.702 536.337 959.734 535.025 959.734 530.433L1010.25 95.4818C1010.91 88.9214 1012.87 87.6094 1019.43 87.6094H1081.1C1088.32 87.6094 1090.29 88.9215 1090.94 96.1379L1141.46 526.497C1141.46 532.401 1141.46 535.681 1136.21 535.681C1132.93 536.337 1129.65 536.337 1127.02 536.337H1098.16ZM1077.16 416.939C1077.16 410.379 1074.54 390.042 1074.54 390.042C1060.76 254.242 1056.83 226.689 1053.55 190.607C1053.55 189.295 1052.89 182.078 1050.92 182.078C1048.3 182.078 1047.64 188.639 1047.64 189.951L1029.27 367.08C1027.31 380.201 1023.37 402.506 1023.37 416.283C1023.37 421.531 1025.99 422.843 1031.9 422.843H1069.95C1075.2 422.843 1077.16 421.531 1077.16 416.939Z" fill="#F7F5E1"/>
<path d="M1287.79 536.337C1279.92 536.337 1277.95 535.681 1276.64 530.433V383.481C1276.64 358.552 1270.74 339.527 1235.31 339.527L1224.16 340.183C1219.57 340.183 1217.6 342.151 1217.6 346.743V519.937C1217.6 530.433 1217.6 535.025 1210.38 536.337H1172.99C1166.43 536.337 1162.49 536.337 1162.49 526.497V96.1379C1163.15 89.5775 1165.12 88.2654 1171.68 87.6094H1249.74C1293.7 87.6094 1332.41 118.443 1332.41 174.206V254.242C1332.41 271.299 1328.47 289.012 1318.63 304.101C1317.97 304.757 1314.69 308.693 1314.69 312.629C1314.69 313.942 1314.69 315.254 1315.35 316.566C1324.53 325.75 1331.75 350.023 1332.41 363.144V521.905C1332.41 533.713 1332.41 535.025 1325.19 536.337H1287.79ZM1276.64 245.714V181.422C1276.64 153.869 1261.55 142.716 1237.28 142.716L1222.85 143.372C1219.57 144.028 1218.26 145.34 1217.6 148.621V272.611C1217.6 281.796 1217.6 285.076 1225.47 285.076H1245.81C1267.46 283.108 1276.64 265.395 1276.64 245.714Z" fill="#F7F5E1"/>
<path d="M1494.41 536.337C1485.88 536.337 1483.92 535.025 1481.95 527.153C1474.73 493.039 1450.46 401.194 1437.99 351.992C1437.99 347.399 1435.37 340.839 1430.78 340.839C1427.5 340.839 1426.18 342.807 1426.18 348.055V519.937C1426.18 530.433 1426.18 535.025 1418.97 536.337H1380.92C1371.08 536.337 1370.42 531.745 1370.42 517.969V103.354C1370.42 100.73 1370.42 97.4499 1371.08 94.1697C1371.08 90.2335 1373.05 88.2654 1377.64 87.6094H1416.34C1423.56 88.2654 1424.87 89.5774 1424.87 96.7938C1425.53 100.074 1425.53 102.698 1425.53 105.978V269.987C1425.53 281.796 1426.18 282.452 1429.47 283.764C1434.71 283.764 1435.37 279.828 1437.34 272.611C1459.64 184.703 1472.76 130.908 1481.29 99.418C1481.29 93.5137 1485.23 88.2654 1489.16 87.6094H1527.21C1532.46 87.6094 1536.4 87.6093 1536.4 93.5137C1536.4 94.8257 1536.4 97.4499 1535.09 99.418C1520 163.053 1497.69 249.65 1484.57 301.477C1483.92 304.757 1483.26 308.693 1483.26 311.973C1483.26 315.254 1483.92 318.534 1484.57 322.47C1499 377.577 1519.34 459.581 1536.4 527.809V529.777C1536.4 533.713 1535.09 535.681 1529.18 535.681H1494.41V536.337Z" fill="#F7F5E1"/>
<path d="M1739.77 536.337C1733.21 536.337 1732.56 529.777 1732.56 519.28V346.087C1732.56 340.839 1726.65 339.527 1724.03 339.527H1682.7C1679.42 339.527 1675.48 341.495 1674.17 345.431V521.905C1674.17 531.089 1674.17 535.025 1667.61 536.337H1629.56C1623 536.337 1621.03 536.337 1619.72 530.433V98.106C1619.72 92.2017 1621.03 88.2654 1627.59 87.6094H1661.05C1671.55 87.6094 1673.51 88.2654 1674.17 95.4818V277.86C1674.83 282.452 1676.14 283.764 1680.73 284.42H1722.72C1730.59 284.42 1731.9 283.764 1732.56 277.86V104.01C1732.56 100.73 1732.56 98.106 1733.21 94.8258C1733.21 90.2336 1735.18 88.2654 1739.77 87.6094H1777.17C1785.7 87.6094 1787.01 89.5775 1787.66 97.4499V520.593C1787.66 523.873 1787.66 526.497 1787.01 529.777C1787.01 534.369 1785.04 536.337 1780.45 536.337H1739.77Z" fill="#F7F5E1"/>
<path d="M1911.66 540.951C1857.86 540.951 1827.03 498.965 1827.03 447.138V173.572C1827.03 168.323 1827.03 162.419 1828.34 156.515C1833.59 113.873 1870.33 83.0388 1911.66 82.3828C1956.27 82.3828 1995.63 117.809 1996.94 165.699V457.635C1995.63 503.557 1958.89 540.295 1912.97 540.951H1911.66ZM1941.18 458.947V173.572C1941.18 154.547 1933.31 138.802 1912.97 138.802C1898.54 138.802 1885.42 148.642 1882.79 164.387V449.107C1882.79 469.444 1889.35 486.5 1912.32 486.5C1927.4 486.5 1939.87 474.692 1941.18 458.947Z" fill="#F7F5E1"/>
<path d="M2162.27 536.337C2154.4 536.337 2152.43 535.681 2151.12 530.433V383.481C2151.12 358.552 2145.21 339.527 2109.79 339.527L2098.64 340.183C2094.04 340.183 2092.08 342.151 2092.08 346.743V519.937C2092.08 530.433 2092.08 535.025 2084.86 536.337H2047.47C2040.91 536.337 2036.97 536.337 2036.97 526.497V96.1379C2037.62 89.5775 2039.59 88.2654 2046.15 87.6094H2124.22C2168.18 87.6094 2206.88 118.443 2206.88 174.206V254.242C2206.88 271.299 2202.95 289.012 2193.11 304.101C2192.45 304.757 2189.17 308.693 2189.17 312.629C2189.17 313.942 2189.17 315.254 2189.82 316.566C2199.01 325.75 2206.23 350.023 2206.88 363.144V521.905C2206.88 533.713 2206.88 535.025 2199.67 536.337H2162.27ZM2151.12 245.714V181.422C2151.12 153.869 2136.03 142.716 2111.76 142.716L2097.32 143.372C2094.04 144.028 2092.73 145.34 2092.08 148.621V272.611C2092.08 281.796 2092.08 285.076 2099.95 285.076H2120.29C2142.59 283.108 2151.12 265.395 2151.12 245.714Z" fill="#F7F5E1"/>
<path d="M2267.9 517.303C2241.66 491.062 2241.66 474.005 2241.66 423.49V391.345C2241.66 378.88 2242.31 376.912 2250.18 376.912H2285.61C2292.17 376.912 2295.45 376.912 2296.11 382.816V449.076C2296.11 472.037 2307.26 485.814 2326.28 485.814C2340.06 485.814 2353.18 474.661 2355.15 459.572V422.178C2355.15 407.745 2350.56 393.969 2342.03 382.16L2257.4 270.634C2248.87 259.481 2243.62 247.673 2241.66 233.896L2241 166.981C2242.31 117.778 2283.64 83.6641 2326.28 83.6641C2370.24 83.6641 2407.63 118.434 2410.26 165.668V241.769C2409.6 246.361 2408.29 248.329 2403.7 248.329H2366.3C2359.74 248.329 2356.46 248.329 2355.81 241.113V175.509C2355.81 155.172 2347.28 140.083 2326.28 140.083C2308.57 140.083 2299.39 152.548 2296.76 170.261C2296.76 182.725 2296.76 194.534 2297.42 206.343C2297.42 220.775 2302.67 233.896 2311.2 245.049C2334.81 276.538 2358.43 308.028 2382.7 340.174C2396.48 358.543 2410.26 375.6 2410.26 403.153V459.572C2408.94 508.775 2369.58 542.233 2326.28 542.233C2305.29 540.921 2283.64 533.048 2267.9 517.303Z" fill="#F7F5E1"/>
<path d="M2464.04 536.337C2451.58 536.337 2450.27 536.337 2450.27 522.561V104.01C2450.27 88.9214 2450.27 87.6094 2463.39 87.6094H2605.75C2615.59 87.6094 2618.87 87.6094 2618.87 98.762V131.564C2618.87 140.092 2618.87 142.06 2605.75 142.06H2519.15C2507.34 142.06 2504.72 142.06 2504.72 153.869V273.267C2504.72 283.108 2505.37 284.42 2517.84 284.42H2575.57C2585.41 284.42 2588.69 284.42 2588.69 294.917V328.374C2588.69 336.903 2588.03 338.871 2576.22 338.871H2517.84C2507.34 338.871 2504.72 338.871 2504.72 350.68V469.422C2504.72 479.918 2505.37 481.23 2519.15 481.23H2605.09C2615.59 481.23 2618.87 481.231 2618.87 492.383V525.185C2618.87 534.369 2617.55 535.681 2608.37 535.681H2464.04V536.337Z" fill="#F7F5E1"/>
<path d="M764.133 640.305V585.234H781.484C786.764 585.234 792.045 586.743 796.571 589.006C801.098 591.269 804.115 594.287 807.133 598.813C809.396 602.585 810.905 607.866 810.905 613.147C810.905 618.427 809.396 622.954 807.133 627.48C804.869 632.006 801.098 635.024 796.571 637.287C792.045 639.55 787.519 641.059 781.484 641.059H764.133V640.305ZM775.449 630.497H782.238C784.501 630.497 786.764 629.743 789.027 628.989C791.291 628.234 792.799 626.726 794.308 625.217C795.817 623.708 797.326 621.445 798.08 619.936C798.834 617.673 799.589 615.41 799.589 613.147C799.589 610.884 798.834 608.62 798.08 606.357C797.326 604.094 795.817 602.585 794.308 601.076C792.799 599.568 790.536 598.059 789.027 597.305C786.764 596.55 784.501 595.796 782.238 595.796H775.449V630.497Z" fill="#F7F5E1"/>
<path d="M981.468 587.055H970.906V642.125H981.468V587.055Z" fill="#F7F5E1"/>
<path d="M1162.59 638.567C1159.57 638.567 1157.31 638.568 1155.05 637.813C1152.78 637.059 1150.52 636.304 1148.26 634.795C1146 633.287 1144.49 632.532 1143.73 630.269C1142.22 628.761 1141.47 627.252 1141.47 625.743L1152.03 622.725C1152.78 624.234 1153.54 625.743 1155.8 627.252C1157.31 628.76 1159.57 629.515 1162.59 629.515C1165.61 629.515 1167.87 628.76 1169.38 628.006C1170.89 626.497 1172.4 624.988 1172.4 623.48C1172.4 621.971 1171.64 620.462 1170.14 618.954C1168.63 617.445 1167.12 616.69 1164.1 615.936L1156.56 613.673C1153.54 612.918 1151.28 612.164 1149.77 610.655C1147.5 609.147 1146 607.638 1145.24 605.375C1143.73 603.111 1143.73 600.848 1143.73 597.831C1143.73 592.55 1145.24 588.778 1149.01 585.76C1152.78 582.743 1157.31 581.234 1163.35 581.234C1167.12 581.234 1170.14 581.989 1172.4 582.743C1175.42 583.497 1176.92 585.006 1179.19 587.269C1180.7 589.533 1182.21 591.041 1182.96 594.059L1172.4 597.076C1171.64 595.567 1170.89 594.059 1168.63 592.55C1167.12 591.041 1164.85 590.287 1162.59 590.287C1159.57 590.287 1158.07 591.041 1156.56 591.796C1155.05 593.304 1154.29 594.813 1154.29 597.076C1154.29 598.585 1155.05 600.094 1155.8 600.848C1157.31 601.603 1158.82 602.357 1160.33 603.111L1167.87 604.62C1172.4 606.129 1176.17 607.638 1179.19 610.655C1181.45 613.673 1182.96 616.69 1182.96 620.462C1182.96 623.48 1182.21 626.497 1180.7 628.76C1179.19 631.024 1176.92 633.287 1173.91 634.795C1170.14 637.813 1167.12 638.567 1162.59 638.567Z" fill="#F7F5E1"/>
<path d="M1342.96 636.305V581.234H1363.33C1367.1 581.234 1370.87 581.989 1373.89 583.498C1376.91 585.006 1379.17 587.27 1380.68 590.287C1382.19 593.305 1382.94 596.322 1382.94 600.094C1382.94 603.866 1382.19 606.884 1380.68 609.901C1379.17 612.919 1376.91 615.182 1373.89 616.69C1370.87 618.199 1367.86 618.954 1364.08 618.954H1353.52V637.059H1342.96V636.305ZM1354.28 608.392H1364.84C1367.1 608.392 1369.36 607.638 1370.87 606.129C1372.38 604.62 1373.14 602.357 1373.14 600.094C1373.14 597.831 1372.38 595.568 1370.87 594.059C1369.36 592.55 1367.1 591.796 1364.08 591.796H1354.28V608.392Z" fill="#F7F5E1"/>
<path d="M1542.95 641.305V586.234H1577.65V596.041H1553.51V608.866H1574.63V618.673H1553.51V631.497H1577.65V641.305H1542.95Z" fill="#F7F5E1"/>
<path d="M1737.65 640.305V585.234H1748.96L1776.12 622.199V585.234H1787.44V640.305H1776.12L1748.96 602.585V640.305H1737.65Z" fill="#F7F5E1"/>
<path d="M1968.56 640.567C1965.54 640.567 1963.28 640.568 1961.02 639.813C1958.75 639.059 1956.49 638.304 1954.23 636.795C1951.96 635.287 1950.46 634.532 1949.7 632.269C1948.19 630.761 1947.44 629.252 1947.44 627.743L1958 624.725C1958.75 626.234 1959.51 627.743 1961.77 629.252C1963.28 630.76 1965.54 631.515 1968.56 631.515C1971.58 631.515 1973.84 630.76 1975.35 630.006C1976.86 628.497 1978.37 626.988 1978.37 625.48C1978.37 623.971 1977.61 622.462 1976.1 620.954C1974.6 619.445 1973.09 618.69 1970.07 617.936L1962.53 615.673C1959.51 614.918 1957.24 614.164 1955.74 612.655C1953.47 611.147 1951.96 609.638 1951.21 607.375C1949.7 605.111 1949.7 602.848 1949.7 599.831C1949.7 594.55 1951.21 590.778 1954.98 587.76C1958.75 584.743 1963.28 583.234 1969.31 583.234C1973.09 583.234 1976.1 583.989 1978.37 584.743C1981.38 585.497 1982.89 587.006 1985.16 589.269C1986.67 591.533 1988.17 593.041 1988.93 596.059L1978.37 599.076C1977.61 597.567 1976.86 596.059 1974.6 594.55C1973.09 593.041 1970.82 592.287 1968.56 592.287C1965.54 592.287 1964.03 593.041 1962.53 593.796C1961.02 595.304 1960.26 596.813 1960.26 599.076C1960.26 600.585 1961.02 602.094 1961.77 602.848C1963.28 603.603 1964.79 604.357 1966.3 605.111L1973.84 606.62C1978.37 608.129 1982.14 609.638 1985.16 612.655C1987.42 615.673 1988.93 618.69 1988.93 622.462C1988.93 625.48 1988.17 628.497 1986.67 630.76C1985.16 633.024 1982.89 635.287 1979.88 636.795C1976.86 639.813 1973.09 640.567 1968.56 640.567Z" fill="#F7F5E1"/>
<path d="M2148.93 639.305L2170.81 584.234H2181.37L2160.25 639.305H2148.93ZM2159.49 618.182H2194.19V627.989H2159.49V618.182ZM2192.68 639.305L2171.56 584.234H2182.12L2204 639.305H2192.68Z" fill="#F7F5E1"/>
<path d="M2364 638.305V583.234H2384.37C2388.14 583.234 2391.91 583.989 2394.93 585.498C2397.95 587.006 2400.21 589.269 2401.72 591.533C2403.23 594.55 2403.98 597.568 2403.98 600.585C2403.98 604.357 2403.23 607.375 2400.96 609.638C2399.46 612.655 2396.44 614.164 2393.42 615.673C2390.4 617.182 2386.63 617.936 2382.86 617.936H2373.81V637.55H2364V638.305ZM2374.56 608.884H2384.37C2385.88 608.884 2387.39 608.884 2388.89 608.129C2390.4 607.375 2391.16 606.62 2391.91 605.112C2392.67 603.603 2393.42 602.849 2393.42 601.34C2393.42 599.077 2392.67 596.813 2391.16 595.305C2389.65 593.796 2387.39 593.041 2384.37 593.041H2375.32V608.884H2374.56ZM2394.18 638.305L2381.35 616.427L2389.65 610.392L2406.25 638.305H2394.18Z" fill="#F7F5E1"/>
<path d="M2585.86 614.673L2566.24 582.234H2578.31L2596.42 612.41L2585.86 614.673ZM2585.86 610.901H2596.42V637.305H2585.86V610.901ZM2596.42 614.673L2585.86 612.41L2603.96 582.234H2616.03L2596.42 614.673Z" fill="#F7F5E1"/>
</svg>
