<svg width="20" height="21" viewBox="0 0 20 21" fill="none" xmlns="http://www.w3.org/2000/svg">
<path d="M11.3982 20.0537H8.62641C7.95976 20.0537 7.37062 19.5804 7.22566 18.9279L6.87486 17.3679C6.30311 17.1254 5.75807 16.8088 5.24644 16.4221L3.72728 16.902C3.07557 17.1045 2.36726 16.8279 2.04057 16.2445L0.659038 13.8554C0.328075 13.2637 0.439769 12.5354 0.926524 12.077L2.10389 10.9946C2.06819 10.677 2.05064 10.3621 2.05064 10.0537C2.05064 9.74533 2.06819 9.43039 2.10313 9.11285L0.932323 8.03543C0.439769 7.57202 0.327312 6.84372 0.654765 6.25961L2.04484 3.85544C2.36726 3.27866 3.07725 3.00461 3.72483 3.20374L5.24644 3.68454C5.75807 3.29788 6.30311 2.98126 6.87486 2.73865L7.22642 1.17706C7.37062 0.527039 7.95976 0.0537109 8.62641 0.0537109H11.3982C12.0648 0.0537109 12.654 0.527039 12.7989 1.1795L13.1497 2.73956C13.7215 2.98203 14.2665 3.29865 14.7781 3.6853L16.2973 3.20541C16.9507 3.00461 17.6573 3.27957 17.984 3.86292L19.3657 6.25198C19.6965 6.84372 19.5848 7.57202 19.0981 8.0304L17.9207 9.11285C17.9556 9.43039 17.9732 9.74625 17.9732 10.0537C17.9732 10.3612 17.9556 10.677 17.9207 10.9946L19.0923 12.0712C19.0939 12.0729 19.0956 12.0746 19.0981 12.0763C19.5848 12.5345 19.6973 13.2629 19.3698 13.847L17.9797 16.2512C17.6573 16.8279 16.949 17.1037 16.299 16.902L14.7772 16.4212C14.2656 16.8079 13.7206 17.1245 13.149 17.3671L12.7973 18.9287C12.654 19.5804 12.0648 20.0537 11.3982 20.0537ZM5.374 15.1028C5.51728 15.1028 5.65812 15.152 5.77149 15.2454C6.344 15.7162 6.96809 16.0796 7.62895 16.3229C7.82807 16.3962 7.97563 16.5654 8.02232 16.772L8.44651 18.6554C8.46559 18.7421 8.54142 18.8037 8.62733 18.8037H11.3989C11.4848 18.8037 11.5607 18.7421 11.579 18.6571L12.0039 16.772C12.0506 16.5654 12.1982 16.3962 12.3973 16.3229C13.0573 16.0796 13.6823 15.7162 14.2548 15.2454C14.4182 15.1103 14.6381 15.067 14.8407 15.1312L16.6748 15.7104C16.7622 15.7379 16.8556 15.7054 16.8956 15.6337L18.2857 13.2295C18.3273 13.1554 18.3122 13.0537 18.2457 12.9887L16.839 11.6954C16.6864 11.5553 16.6132 11.3478 16.644 11.1429C16.6989 10.7738 16.7265 10.4071 16.7265 10.0529C16.7265 9.69864 16.6989 9.33197 16.644 8.96286C16.6132 8.75793 16.6864 8.55118 16.839 8.41034L18.2489 7.11365C18.3122 7.0546 18.3273 6.95114 18.2814 6.86874L16.8997 4.47952C16.8549 4.40033 16.7598 4.36874 16.6731 4.39621L14.8415 4.97452C14.6398 5.03876 14.4199 4.99542 14.2557 4.86038C13.6832 4.3895 13.0589 4.02618 12.3981 3.78281C12.199 3.70956 12.0514 3.54034 12.0049 3.33374L11.5807 1.45035C11.5598 1.36536 11.4839 1.30371 11.3982 1.30371H8.62641C8.54066 1.30371 8.46482 1.36536 8.44651 1.45035L8.0214 3.33542C7.97486 3.54202 7.82731 3.71033 7.62818 3.78448C6.96809 4.02786 6.34309 4.39117 5.77149 4.86206C5.60731 4.9971 5.3856 5.03952 5.18571 4.9762L3.35145 4.39697C3.2657 4.37042 3.17063 4.40201 3.13066 4.47372L1.74058 6.87698C1.69892 6.95206 1.71403 7.05536 1.78315 7.12036L3.18818 8.41125C3.34062 8.55118 3.41401 8.7587 3.38319 8.96378C3.32811 9.33289 3.30064 9.69955 3.30064 10.0537C3.30064 10.4079 3.32811 10.7745 3.38319 11.1436C3.41401 11.3487 3.34062 11.5553 3.18818 11.6962L1.77812 12.9929C1.71479 13.0521 1.69984 13.1554 1.74562 13.2379L3.1273 15.627C3.1714 15.7062 3.26646 15.737 3.35389 15.7104L5.18571 15.132C5.24736 15.112 5.31068 15.1028 5.374 15.1028Z" fill="white"/>
</svg>
