<svg width="15" height="16" viewBox="0 0 15 16" fill="none" xmlns="http://www.w3.org/2000/svg">
<path fill-rule="evenodd" clip-rule="evenodd" d="M5.24209 2.34207C5.78126 1.8029 6.51253 1.5 7.27502 1.5C8.03752 1.5 8.76879 1.8029 9.30796 2.34207C9.84712 2.88124 10.15 3.6125 10.15 4.375V6.52499H4.40002V4.375C4.40002 3.6125 4.70293 2.88124 5.24209 2.34207ZM3.64706 8.02499C3.64805 8.025 3.64904 8.025 3.65002 8.025C3.65101 8.025 3.652 8.025 3.65299 8.02499H10.8971C10.8981 8.025 10.899 8.025 10.9 8.025C10.901 8.025 10.902 8.025 10.903 8.02499H12.35C12.7366 8.02499 13.05 8.33839 13.05 8.72499V13.8C13.05 14.1866 12.7366 14.5 12.35 14.5H2.2C1.8134 14.5 1.5 14.1866 1.5 13.8V8.72499C1.5 8.33839 1.8134 8.02499 2.2 8.02499H3.64706ZM2.90002 6.52499V4.375C2.90002 3.21468 3.36096 2.10188 4.18143 1.28141C5.0019 0.460936 6.1147 0 7.27502 0C8.43535 0 9.54815 0.460936 10.3686 1.28141C11.1891 2.10188 11.65 3.21468 11.65 4.375V6.52499H12.35C13.565 6.52499 14.55 7.50997 14.55 8.72499V13.8C14.55 15.015 13.565 16 12.35 16H2.2C0.984974 16 0 15.015 0 13.8V8.72499C0 7.50997 0.984974 6.52499 2.2 6.52499H2.90002Z" fill="white"/>
</svg>
